<?xml version="1.0" encoding="UTF-8"?>
<svg version="1.1" xmlns="http://www.w3.org/2000/svg" width="2175" height="588">
<path d="M0 0 C4.88427934 1.54485508 9.76819613 3.09085088 14.65185547 4.63766479 C16.48316385 5.21758322 18.31454532 5.7972709 20.14599609 6.3767395 C30.87066624 9.77046022 41.58882852 13.18227665 52.2890625 16.65234375 C78.02173506 24.98434083 103.84984027 32.95718425 129.75 40.75 C130.9565625 41.11315874 130.9565625 41.11315874 132.1875 41.48365402 C137.59806703 43.11187158 143.00962818 44.73675054 148.421875 46.359375 C149.11505577 46.56740564 149.80823654 46.77543629 150.52242279 46.98977089 C151.86646763 47.39291014 153.21068072 47.79548896 154.55507278 48.19746876 C156.46061763 48.76761354 158.36526854 49.34074335 160.26989746 49.91394043 C162.83470204 50.66071094 165.38827736 51.37049663 167.9732666 52.03625488 C169.23151245 52.36750366 170.4897583 52.69875244 171.78613281 53.04003906 C172.91013489 53.32300842 174.03413696 53.60597778 175.19219971 53.89752197 C179.2031789 55.47242616 180.32583355 57.49029097 182.03688049 61.32196045 C182.34898972 62.18089905 182.66109894 63.03983765 182.98266602 63.92480469 C183.34549683 64.91267471 183.70832764 65.90054474 184.08215332 66.91835022 C184.66217102 68.52884499 184.66217102 68.52884499 185.25390625 70.171875 C185.66660767 71.30028305 186.07930908 72.4286911 186.5045166 73.59129333 C187.62844253 76.66684023 188.74661504 79.74440895 189.86268997 82.82281113 C191.04103846 86.06783479 192.22737711 89.30993012 193.41381836 92.55200195 C193.65198304 93.20283029 193.89014772 93.85365862 194.13552952 94.52420902 C194.61862202 95.84423022 195.10175509 97.16423656 195.58492851 98.48422813 C196.31559585 100.4811171 197.0454444 102.47830387 197.77516174 104.47554016 C202.13600641 116.4053057 206.58577981 128.30079266 211.0625 140.1875 C217.46684411 157.21073482 223.814825 174.25413408 230.125 191.3125 C230.54957489 192.46019867 230.97414978 193.60789734 231.41159058 194.79037476 C232.26185889 197.08885089 233.11212442 199.38732805 233.96238708 201.68580627 C234.37698685 202.80656052 234.79158661 203.92731476 235.21875 205.08203125 C235.62976456 206.19315781 236.04077911 207.30428436 236.46424866 208.44908142 C240.17220278 218.4706405 243.89559772 228.48640613 247.625 238.5 C252.45772597 251.4769778 257.28497694 264.45597318 262.10546875 277.4375 C262.51039047 278.52794113 262.51039047 278.52794113 262.92349243 279.64041138 C264.31806945 283.39600322 265.71260084 287.15161201 267.1071167 290.90722656 C275.22719388 312.77554907 283.35130385 334.64232091 291.5 356.5 C298.91617168 376.39325221 306.31454349 396.29308769 313.70651245 416.19534302 C314.54519281 418.4534022 315.38392066 420.71144375 316.22265625 422.96948242 C323.15850049 441.64260066 330.08565898 460.31890737 337 479 C333.05395223 480.53870484 329.73215756 479.4055814 325.82568359 478.31958008 C325.10368523 478.12712047 324.38168686 477.93466085 323.63780975 477.73636913 C321.22211874 477.08992148 318.81040428 476.42972713 316.3984375 475.76953125 C314.67731833 475.30596783 312.95596874 474.84325923 311.23440552 474.38134766 C306.57973517 473.12988017 301.92835964 471.8665482 297.27749634 470.601017 C292.43228093 469.28472431 287.58416678 467.97919885 282.73632812 466.67260742 C274.76239084 464.52201972 266.79022927 462.36496619 258.81933594 460.203125 C248.52341962 457.41086014 238.22410161 454.63137024 227.92326736 451.85730934 C215.14797786 448.41651359 202.3732116 444.97372035 189.60213852 441.51730347 C187.62564982 440.98257082 185.64890605 440.44878126 183.67214966 439.91503906 C181.28328729 439.26791794 178.89737944 438.60976267 176.51498413 437.93922424 C174.07901697 437.28831962 171.62232904 436.71212658 169.15420532 436.19639587 C160.04067114 434.12649392 160.04067114 434.12649392 157.21173096 431.06425476 C155.91723238 428.60580449 155.07034209 426.25071699 154.2734375 423.58984375 C153.78467636 422.20582115 153.78467636 422.20582115 153.28604126 420.7938385 C152.26218971 417.85692126 151.31817765 414.90118558 150.375 411.9375 C149.706991 409.97544639 149.03385405 408.0151308 148.35546875 406.05664062 C147.07483721 402.33597409 145.82426603 398.60775028 144.60449219 394.86669922 C143.06064931 390.14175914 141.38545127 385.47550893 139.61572266 380.83032227 C139 379 139 379 139 377 C118.74285024 386.25802178 98.71093111 395.9441897 78.70405579 405.72888184 C69.73129347 410.11412737 60.72044966 414.41825899 51.703125 418.7109375 C46.67238515 421.10998974 41.64905329 423.52448472 36.625 425.9375 C35.5848877 426.43693115 34.54477539 426.9363623 33.47314453 427.45092773 C31.3678121 428.461859 29.2625062 429.47284551 27.15722656 430.48388672 C21.93848285 432.98994908 16.71921674 435.49492296 11.5 438 C9.41666413 438.99999471 7.33333079 439.99999471 5.25 441 C1.08333333 443 -3.08333333 445 -7.25 447 C-8.28189453 447.49532227 -9.31378906 447.99064453 -10.37695312 448.50097656 C-12.45373538 449.49780607 -14.5305581 450.49455129 -16.60742188 451.49121094 C-23.00162726 454.55986757 -29.39439165 457.63149727 -35.78564453 460.70629883 C-37.90522735 461.72423307 -40.02597219 462.73975173 -42.14794922 463.75268555 C-46.82085328 465.98335846 -51.48036832 468.23024744 -56.1015625 470.56640625 C-57.25978516 471.14116699 -57.25978516 471.14116699 -58.44140625 471.72753906 C-59.83928893 472.42210421 -61.23070809 473.1299315 -62.61328125 473.85449219 C-67.23525427 476.1242976 -70.02637768 476.02697271 -75 475 C-78.3762207 473.67163086 -78.3762207 473.67163086 -81.92578125 471.96484375 C-82.57785049 471.65473358 -83.22991974 471.34462341 -83.90174866 471.02511597 C-86.04290448 470.00452193 -88.17753192 468.97096678 -90.3125 467.9375 C-91.82520175 467.21407947 -93.33839461 466.49168507 -94.85205078 465.77026367 C-97.99949577 464.26914495 -101.14477852 462.76362854 -104.28857422 461.25488281 C-110.9245523 458.07396692 -117.58397597 454.94306741 -124.24441528 451.81378174 C-126.38664095 450.80702926 -128.52822606 449.79892501 -130.66967773 448.79052734 C-140.49400527 444.16614591 -150.33842147 439.58670762 -160.19311523 435.02734375 C-166.99743456 431.8738721 -173.78690767 428.69080586 -180.56640625 425.484375 C-181.38524292 425.09712753 -182.20407959 424.70988007 -183.04772949 424.31089783 C-187.09475033 422.39615819 -191.14057377 420.47892823 -195.18505859 418.55883789 C-196.66372935 417.85821958 -198.14240739 417.15761663 -199.62109375 416.45703125 C-200.29378799 416.13679993 -200.96648224 415.8165686 -201.65956116 415.4866333 C-205.06638207 413.87388747 -208.4814703 412.35289173 -212 411 C-211.38814057 406.0077693 -209.17324712 402.04129707 -206.87890625 397.6484375 C-206.25072243 396.42817368 -206.25072243 396.42817368 -205.60984802 395.18325806 C-204.26651404 392.57747208 -202.91458263 389.97625527 -201.5625 387.375 C-200.68759976 385.67997193 -199.81324584 383.98466176 -198.93945312 382.2890625 C-194.20948236 373.12379296 -189.42225906 363.9893052 -184.6103363 354.86685181 C-180.91806986 347.86058164 -177.28385778 340.82535164 -173.66714478 333.77984619 C-171.83906826 330.21919489 -170.00758103 326.66029946 -168.17578125 323.1015625 C-167.81467758 322.40002045 -167.45357391 321.69847839 -167.08152771 320.97567749 C-163.54059529 314.10074797 -159.96595724 307.24363408 -156.3828125 300.390625 C-150.8222128 289.75427353 -145.30359527 279.09620736 -139.78222656 268.43945312 C-136.27469728 261.6704021 -132.76455011 254.90270827 -129.25488281 248.13476562 C-126.31227507 242.46008887 -123.3703228 236.78507416 -120.4296875 231.109375 C-114.98770799 220.60736164 -109.53975513 210.10866495 -104.0625 199.625 C-98.59641583 189.16145776 -93.17140232 178.6768401 -87.7510376 168.1895752 C-87.43487488 167.57787476 -87.11871216 166.96617432 -86.79296875 166.3359375 C-86.4766449 165.72391479 -86.16032104 165.11189209 -85.83441162 164.48132324 C-80.81386729 154.76913468 -75.7770644 145.06536829 -70.74267578 135.36035156 C-68.9721894 131.94637362 -67.20274911 128.53185536 -65.43359375 125.1171875 C-59.99042425 114.61251145 -54.54110337 104.11124553 -49.0625 93.625 C-44.5624782 85.01075867 -40.08772969 76.38360632 -35.625 67.75 C-35.30978394 67.14019287 -34.99456787 66.53038574 -34.6697998 65.90209961 C-33.39433526 63.43456189 -32.11889109 60.96701363 -30.84347534 58.49945068 C-25.80248721 48.74761876 -20.75062806 39.00142666 -15.69189453 29.25878906 C-14.5465263 27.05267432 -13.40168481 24.84628604 -12.25732422 22.63964844 C-10.59001191 19.42549573 -8.92034666 16.21257663 -7.25 13 C-6.74831299 12.0320752 -6.24662598 11.06415039 -5.72973633 10.06689453 C-5.03593872 8.73440674 -5.03593872 8.73440674 -4.328125 7.375 C-3.9249707 6.59898438 -3.52181641 5.82296875 -3.10644531 5.0234375 C-2 3 -2 3 0 0 Z M63 175 C62.74943848 175.50635986 62.49887695 176.01271973 62.24072266 176.53442383 C57.28403783 186.5365867 52.25914206 196.49405739 47.03369141 206.35864258 C43.31422673 213.38437765 39.65343466 220.43973262 36 227.5 C31.6398328 235.92262657 27.25755237 244.33236752 22.828125 252.71875 C18.57247806 260.78789875 14.38488224 268.89218986 10.19165039 276.99389648 C6.63334781 283.8642439 3.05152874 290.72131385 -0.5625 297.5625 C-3.78858875 303.66934788 -6.96851686 309.79343715 -10 316 C-5.68120327 314.64426385 -1.66106266 312.99340257 2.42578125 311.05078125 C3.34277298 310.61727104 3.34277298 310.61727104 4.27828979 310.17500305 C5.59878758 309.55064299 6.9186326 308.92490084 8.23788452 308.2979126 C11.83420681 306.58971109 15.43648435 304.89417827 19.0390625 303.19921875 C20.15649086 302.67334167 20.15649086 302.67334167 21.29649353 302.13684082 C28.89696708 298.56681487 36.53749415 295.08732118 44.1875 291.625 C46.89858241 290.39745512 49.60954076 289.16963703 52.3203125 287.94140625 C53.00637573 287.63057098 53.69243896 287.31973572 54.39929199 286.9994812 C63.46850863 282.88619111 72.5150334 278.72335296 81.5625 274.5625 C82.3918808 274.18111877 83.2212616 273.79973755 84.07577515 273.40679932 C88.71761105 271.27212804 93.35900784 269.13650501 98 267 C95.99643769 260.03490968 93.70756023 253.22506482 91.19140625 246.4296875 C90.82820786 245.4415506 90.46500946 244.4534137 90.09080505 243.43533325 C88.91795272 240.2473472 87.74058029 237.06105749 86.5625 233.875 C85.75188157 231.67841182 84.94133514 229.48179707 84.13085938 227.28515625 C82.51534366 222.90902886 80.89740776 218.533806 79.27783203 214.15917969 C77.54321367 209.47255859 75.81668418 204.78304209 74.09519958 200.09158325 C72.98843503 197.07904284 71.87576441 194.06871492 70.76095581 191.05914307 C70.2555983 189.69164787 69.75258776 188.32328296 69.25198364 186.95404053 C68.57050094 185.09190263 67.87930709 183.23332698 67.1875 181.375 C66.80980469 180.35148438 66.43210937 179.32796875 66.04296875 178.2734375 C65.21746756 175.84769959 65.21746756 175.84769959 63 175 Z " fill="#EB4554" transform="translate(212,108)"/>
<path d="M0 0 C1.64361523 2.46542284 2.59521865 4.30321464 3.60620117 7.02246094 C4.06651733 8.25227188 4.06651733 8.25227188 4.53613281 9.50692749 C4.86838867 10.40698517 5.20064453 11.30704285 5.54296875 12.234375 C5.8994751 13.19123199 6.25598145 14.14808899 6.62329102 15.13394165 C7.81542453 18.33780047 9.001573 21.54383909 10.1875 24.75 C11.02565216 27.0073782 11.86395277 29.26470128 12.70239258 31.52197266 C20.33913937 52.11008256 27.86910392 72.7375764 35.3688612 93.37593555 C39.97104256 106.03946299 44.58456037 118.69563022 49.4316864 131.26803589 C51.93662803 137.77144476 54.26781565 144.32723697 56.54296875 150.9140625 C57.54280046 153.7709214 58.61471584 156.58797294 59.73828125 159.3984375 C60.0223584 160.11797607 60.30643555 160.83751465 60.59912109 161.57885742 C61.14058771 162.94072323 61.69353371 164.29810621 62.26025391 165.6496582 C64.22465382 170.62061977 64.25590538 174.03339445 62.16017151 178.98377991 C61.03714023 181.30959531 59.85967326 183.59940956 58.66015625 185.88671875 C58.21917099 186.74320511 57.77818573 187.59969147 57.32383728 188.48213196 C55.91106253 191.22129976 54.48693168 193.95437926 53.0625 196.6875 C52.13923563 198.47422805 51.21670303 200.26133443 50.29492188 202.04882812 C45.40692997 211.51269276 40.45978173 220.94520764 35.49171448 230.36723328 C31.96263682 237.06185319 28.474505 243.7768739 25 250.5 C20.644343 258.91497879 16.26971849 267.3188224 11.83911133 275.69458008 C9.34860705 280.41142111 6.89015058 285.14405656 4.44921875 289.88671875 C3.82098923 291.10548199 3.19273391 292.32423194 2.56445312 293.54296875 C1.34191568 295.91477351 0.1238961 298.28872386 -1.09179688 300.6640625 C-2.20906777 302.83220648 -3.34249929 304.9921184 -4.49389648 307.14233398 C-5.98326075 309.88003258 -5.98326075 309.88003258 -7.00805664 312.32836914 C-10.6257127 319.79432815 -18.60595714 322.04168632 -25.8125 325.0625 C-27.29745034 325.70681632 -28.78115698 326.35400578 -30.26367188 327.00390625 C-32.55874646 328.00964841 -34.85442448 329.01359736 -37.15408325 330.00881958 C-44.18335844 333.05273728 -51.11483804 336.28545774 -58.03497314 339.56845093 C-69.28755946 344.90290033 -80.59223594 350.11600741 -91.9375 355.25 C-104.36314631 360.87394763 -116.75338081 366.57067723 -129.125 372.3125 C-130.85587165 373.11548715 -132.5867473 373.91846565 -134.31762695 374.72143555 C-140.42162125 377.55358734 -146.52523666 380.38655564 -152.62841797 383.22045898 C-192.11178106 401.55228267 -192.11178106 401.55228267 -212 410 C-210.50236567 405.00934811 -208.39333884 400.58901685 -206 395.98828125 C-205.60835663 395.22728622 -205.21671326 394.4662912 -204.8132019 393.68223572 C-203.54634954 391.22345574 -202.27331605 388.76793795 -201 386.3125 C-200.12096078 384.60985317 -199.24221826 382.90705312 -198.36376953 381.20410156 C-193.87581189 372.51207541 -189.36478598 363.83254446 -184.78271484 355.18969727 C-180.66606808 347.40960449 -176.65057749 339.57745717 -172.625 331.75 C-167.24062503 321.28117118 -161.83748699 310.82306255 -156.3828125 300.390625 C-150.8222128 289.75427353 -145.30359527 279.09620736 -139.78222656 268.43945312 C-136.27469728 261.6704021 -132.76455011 254.90270827 -129.25488281 248.13476562 C-126.31227507 242.46008887 -123.3703228 236.78507416 -120.4296875 231.109375 C-114.98770799 220.60736164 -109.53975513 210.10866495 -104.0625 199.625 C-98.59641583 189.16145776 -93.17140232 178.6768401 -87.7510376 168.1895752 C-87.43487488 167.57787476 -87.11871216 166.96617432 -86.79296875 166.3359375 C-86.4766449 165.72391479 -86.16032104 165.11189209 -85.83441162 164.48132324 C-80.81386729 154.76913468 -75.7770644 145.06536829 -70.74267578 135.36035156 C-68.9721894 131.94637362 -67.20274911 128.53185536 -65.43359375 125.1171875 C-59.99042425 114.61251145 -54.54110337 104.11124553 -49.0625 93.625 C-44.5624782 85.01075867 -40.08772969 76.38360632 -35.625 67.75 C-35.30978394 67.14019287 -34.99456787 66.53038574 -34.6697998 65.90209961 C-33.39433526 63.43456189 -32.11889109 60.96701363 -30.84347534 58.49945068 C-25.80248721 48.74761876 -20.75062806 39.00142666 -15.69189453 29.25878906 C-14.5465263 27.05267432 -13.40168481 24.84628604 -12.25732422 22.63964844 C-10.59001191 19.42549573 -8.92034666 16.21257663 -7.25 13 C-6.74831299 12.0320752 -6.24662598 11.06415039 -5.72973633 10.06689453 C-5.03593872 8.73440674 -5.03593872 8.73440674 -4.328125 7.375 C-3.9249707 6.59898438 -3.52181641 5.82296875 -3.10644531 5.0234375 C-2 3 -2 3 0 0 Z " fill="#D5313B" transform="translate(212,108)"/>
<path d="M0 0 C10.51678018 0.5729304 20.9570628 1.43995056 31.42382812 2.63891602 C32.88786435 2.80368178 34.3519309 2.96817832 35.81602478 3.13243103 C40.55523049 3.66601776 45.29335447 4.20882173 50.03125 4.75390625 C50.8434733 4.84731505 51.6556966 4.94072385 52.49253273 5.03696322 C60.17868366 5.9216616 67.86433626 6.81059954 75.54897308 7.70835972 C85.29989332 8.84716419 95.05266558 9.96584659 104.80895853 11.05769211 C111.71560759 11.83236507 118.61931828 12.63045317 125.52133322 13.44536918 C129.62362386 13.92908546 133.72645426 14.40289669 137.83277893 14.8511982 C169.65734836 18.33999139 169.65734836 18.33999139 183 27 C185.22073552 28.16196393 187.45126795 29.30559076 189.6953125 30.421875 C191.83952474 31.52934872 193.98273941 32.63875579 196.125 33.75 C197.28894287 34.35360352 198.45288574 34.95720703 199.65209961 35.57910156 C207.54251224 39.68121892 215.36771831 43.891258 223.15869141 48.17871094 C231.72309826 52.87983393 240.35962183 57.44066043 249 62 C259.28931067 67.43084688 269.55779149 72.89101859 279.75073242 78.50146484 C285.13240904 81.45709787 290.54241078 84.3536975 295.97265625 87.21875 C297.36621993 87.9555494 298.75977461 88.69236582 300.15332031 89.42919922 C302.88771497 90.87458607 305.62591954 92.31241317 308.36621094 93.74658203 C309.61537913 94.4063015 310.86440937 95.06628227 312.11328125 95.7265625 C313.22485596 96.31002441 314.33643066 96.89348633 315.48168945 97.49462891 C318 99 318 99 319 101 C316.36 101.66 313.72 102.32 311 103 C310.10759387 107.8479542 310.10759387 107.8479542 310.625 112.6875 C310.74875 113.450625 310.8725 114.21375 311 115 C310.51144531 115.59683594 310.02289063 116.19367188 309.51953125 116.80859375 C307.5692331 119.62123453 307.81310151 120.99224954 308.0625 124.375 C308.23710111 131.00984209 307.30803219 137.22673837 306.125 143.75 C305.95105713 144.73919434 305.77711426 145.72838867 305.59790039 146.74755859 C305.42379639 147.67133301 305.24969238 148.59510742 305.0703125 149.546875 C304.91320801 150.38057617 304.75610352 151.21427734 304.59423828 152.07324219 C304.39813965 152.70907227 304.20204102 153.34490234 304 154 C301.04291642 155.47854179 299.10455315 154.52005822 295.9375 153.75 C294.31134766 153.37101562 294.31134766 153.37101562 292.65234375 152.984375 C291.77707031 152.65953125 290.90179688 152.3346875 290 152 C288.79926778 148.39780334 289.30386856 147.31723898 290.4765625 143.7734375 C290.81816406 142.74089844 291.15976562 141.70835937 291.51171875 140.64453125 C292.06279297 139.02611328 292.06279297 139.02611328 292.625 137.375 C292.96917969 136.31925781 293.31335938 135.26351562 293.66796875 134.17578125 C295.63139989 128.32895862 297.81209291 123.11886719 301.15771484 117.92431641 C302.21254866 115.51440332 301.68164155 114.46894296 301 112 C302.28965176 110.62437146 303.62689293 109.29233607 305 108 C305.65267788 105.93245768 305.65267788 105.93245768 306 104 C305.27781281 104.16286499 304.55562561 104.32572998 303.81155396 104.49353027 C297.0137948 106.02613882 290.21557906 107.55670655 283.41684151 109.08496857 C279.92135578 109.87078135 276.42605291 110.65738921 272.93115234 111.44580078 C268.91556605 112.35163707 264.89921481 113.25403866 260.8828125 114.15625 C258.99527756 114.5827887 258.99527756 114.5827887 257.0696106 115.01794434 C255.32803177 115.408349 255.32803177 115.408349 253.55126953 115.80664062 C252.52534698 116.03758423 251.49942444 116.26852783 250.44241333 116.50646973 C248 117 248 117 246 117 C245.90348145 117.56960449 245.80696289 118.13920898 245.70751953 118.72607422 C244.3614697 126.0701572 242.20633917 133.04036507 239.875 140.125 C239.50246094 141.27226562 239.12992188 142.41953125 238.74609375 143.6015625 C237.83572012 146.40271213 236.92027251 149.20209017 236 152 C227.81218474 150.62305379 220.0661717 148.25651961 212.1796875 145.6953125 C210.82322583 145.25939841 209.46658729 144.82403437 208.10978699 144.38917542 C205.21150001 143.45932249 202.31423697 142.52637244 199.41775513 141.59091187 C192.43133845 139.33502463 185.43928227 137.09671453 178.44750404 134.85751152 C176.84419163 134.34397225 175.24093961 133.83024442 173.63774681 133.31633186 C158.45319659 128.44913938 143.24368444 123.66488157 128.02011108 118.92132568 C124.07740994 117.69263824 120.13594427 116.46001875 116.19458008 115.22705078 C105.13255642 111.7682643 94.06815972 108.31873848 82.98349857 104.9330759 C77.21436986 103.17090251 71.449726 101.39450665 65.68624878 99.61392212 C63.28817583 98.87676658 60.88822438 98.1456921 58.48635864 97.42098999 C55.20615765 96.43099033 51.93274969 95.42106306 48.66015625 94.40625 C47.68755859 94.11861282 46.71496094 93.83097565 45.71289062 93.53462219 C44.83576416 93.25829453 43.9586377 92.98196686 43.05493164 92.69726562 C42.29088516 92.46446899 41.52683868 92.23167236 40.73963928 91.99182129 C39 91 39 91 38.1933136 89.10093689 C37.88653315 85.76683952 39.10538336 82.88536411 40.1953125 79.78515625 C40.66854519 78.36282187 41.1411833 76.94028955 41.61328125 75.51757812 C42.36713539 73.2852749 43.12739033 71.05560273 43.89892578 68.8293457 C44.64109577 66.67448204 45.35708517 64.51224166 46.0703125 62.34765625 C46.3076712 61.68604996 46.54502991 61.02444366 46.7895813 60.3427887 C47.87573742 56.99690902 48.19085387 55.42730673 46.73291016 52.16308594 C45.00898454 50.01121486 43.24882342 48.08638225 41.25 46.1875 C38.678856 43.68133076 36.21057847 41.1643175 33.875 38.4375 C30.43702494 34.44222761 26.85285705 30.5958438 23.25 26.75 C22.02733813 25.44271359 20.80468188 24.13542192 19.58203125 22.828125 C17.8449231 20.97136078 16.10761264 19.1147954 14.36865234 17.25976562 C9.20998099 11.74717973 4.16601465 6.32084981 0 0 Z " fill="#D9353F" transform="translate(172,0)"/>
<path d="M0 0 C14.19 0 28.38 0 43 0 C43 58.08 43 116.16 43 176 C32.44 176 21.88 176 11 176 C7 169 7 169 7 167 C6.35675781 167.44730469 5.71351562 167.89460937 5.05078125 168.35546875 C-10.82557133 178.97745072 -27.49777782 182.50043703 -46.25 178.8125 C-62.17222084 174.89512821 -77.22471997 166.62032393 -86.046875 152.30078125 C-96.7672356 133.77320151 -100.54220109 112.518899 -95.4375 91.5 C-90.46232862 74.46960567 -81.33578273 60.32466568 -66 51 C-48.81850573 41.67916104 -30.7521845 39.80440057 -12 45 C-8.89606525 46.15914576 -5.93975711 47.47517271 -3 49 C-2.34 49.33 -1.68 49.66 -1 50 C-0.67 33.5 -0.34 17 0 0 Z M-47.5390625 92.88671875 C-52.55381527 100.35019583 -54.2194451 108.58510393 -52.53515625 117.4453125 C-50.37151605 125.81821601 -46.07889354 132.29777537 -38.7734375 137.03515625 C-32.2028441 140.6099064 -24.51590081 141.23040007 -17.34765625 139.27734375 C-8.09853762 135.84195683 -3.31808073 131.3796883 0.859375 122.453125 C3.76243228 113.66441733 3.09256899 104.34636889 -0.875 96.01171875 C-4.76356654 89.05820567 -10.13844041 85.44808485 -17.5 82.6875 C-29.05857417 80.41706579 -39.9338038 83.5635209 -47.5390625 92.88671875 Z " fill="#E5404D" transform="translate(1149,132)"/>
<path d="M0 0 C10.40779487 8.17128839 17.2792641 19.8076914 19 33 C19 36.63 19 40.26 19 44 C3.82 44 -11.36 44 -27 44 C-27.99 40.04 -27.99 40.04 -29 36 C-32.17404424 31.94427681 -34.93224559 29.95618008 -40 29 C-46.93263512 29.01114572 -51.97078997 29.97078997 -57 35 C-57.1971417 39.13997567 -57.30765478 42.07703567 -56 46 C-53.68024254 47.13654239 -53.68024254 47.13654239 -51 48 C-50.27651367 48.30824707 -49.55302734 48.61649414 -48.80761719 48.93408203 C-41.78139626 51.88266675 -34.59429728 53.88050908 -27.25 55.875 C-8.19116341 61.2161725 9.533429 66.87436175 20 85 C26.443868 96.97500682 26.02008401 114.41686665 22.375 127.3125 C16.93250987 141.77506118 7.90638296 151.31881601 -6 158 C-27.14930932 166.46499787 -52.91145029 166.69364702 -74 158 C-86.28413218 152.47467507 -95.98206191 144.17992257 -102 132 C-105.46372015 122.86549413 -107 114.79099168 -107 105 C-91.49 105 -75.98 105 -60 105 C-58.68 108.63 -57.36 112.26 -56 116 C-52.55295392 119.81969971 -49.0283852 121.09324201 -44 122 C-37.24242559 122 -31.22721967 121.11593624 -26.1875 116.25 C-24.52506742 113.10012775 -24.1246838 110.55348824 -24 107 C-25.86632426 101.77429206 -30.18084385 99.28871029 -35 97 C-41.53493252 94.89886618 -48.19296615 93.26112835 -54.8515625 91.60131836 C-71.19641357 87.48948135 -88.79959444 82.05081793 -98.3125 67.125 C-105.90815847 53.5436324 -106.52934872 39.30840504 -102.96875 24.32421875 C-99.40738238 12.10355807 -92.02705847 3.10825439 -81.140625 -3.4296875 C-56.82737968 -15.58631016 -22.76147875 -15.54369404 0 0 Z " fill="#DD3844" transform="translate(765,148)"/>
<path d="M0 0 C14.85 0 29.7 0 45 0 C53.10890559 19.70914554 60.91815912 39.51851582 68.64257812 59.38046265 C72.61192063 69.5819602 76.61012802 79.77210542 80.60928345 89.96194458 C81.87054537 93.1761478 83.13106971 96.39063929 84.39135742 99.60522461 C88.24373163 109.43058578 92.09895153 119.25479635 95.96524048 129.07469177 C97.65874575 133.37739299 99.34965087 137.6811132 101.0401001 141.98501587 C101.8426996 144.02649653 102.64652055 146.06749742 103.45159912 148.10800171 C104.55933079 150.91586271 105.66295202 153.7253056 106.765625 156.53515625 C107.26091202 157.7859346 107.26091202 157.7859346 107.76620483 159.0619812 C110 164.77210256 110 164.77210256 110 167 C93.5 167 77 167 60 167 C57.6016352 161.00408799 55.26308055 155.11520694 53.25 149 C53.02957031 148.34644531 52.80914063 147.69289063 52.58203125 147.01953125 C51 142.25378494 51 142.25378494 51 140 C22.785 140.495 22.785 140.495 -6 141 C-8.97 149.58 -11.94 158.16 -15 167 C-30.84 167 -46.68 167 -63 167 C-61.87507079 159.12549554 -61.87507079 159.12549554 -60.64331055 155.99145508 C-60.36676132 155.27676056 -60.0902121 154.56206604 -59.80528259 153.82571411 C-59.50215652 153.06467377 -59.19903046 152.30363342 -58.88671875 151.51953125 C-58.56566666 150.69548798 -58.24461456 149.8714447 -57.91383362 149.02243042 C-57.21419646 147.22927337 -56.51113633 145.43744893 -55.80505371 143.64682007 C-54.66052918 140.74409708 -53.52493462 137.83801779 -52.39160156 134.9309082 C-50.76601179 130.76187482 -49.13747544 126.59400953 -47.50732422 122.42675781 C-43.79817362 112.93255637 -40.14150771 103.41817891 -36.48574829 93.90332031 C-35.24560537 90.67606374 -34.00412856 87.44932272 -32.76245117 84.22265625 C-28.46843383 73.05901262 -24.1907456 61.8892586 -19.93489838 50.71101189 C-19.2075617 48.80071517 -18.47994762 46.89052434 -17.7522583 44.98036194 C-15.43210973 38.88944823 -13.11462368 32.79754079 -10.80175781 26.70385742 C-9.96168499 24.49654532 -9.12152046 22.28926812 -8.28125 20.08203125 C-7.90607239 19.09059113 -7.53089478 18.099151 -7.14434814 17.07766724 C-6.78798279 16.14300629 -6.43161743 15.20834534 -6.06445312 14.24536133 C-5.76059692 13.44512039 -5.45674072 12.64487946 -5.14367676 11.82038879 C-3.52893192 7.83831237 -1.74518287 3.92666147 0 0 Z M22 54 C16.13133711 70.27066809 10.39974716 86.56598689 5 103 C16.22 103 27.44 103 39 103 C37.51129688 96.0095176 37.51129688 96.0095176 35.48779297 89.30639648 C35.2076535 88.50624619 34.92751404 87.70609589 34.6388855 86.88169861 C34.34297516 86.05319901 34.04706482 85.2246994 33.7421875 84.37109375 C33.2803154 83.05843285 33.2803154 83.05843285 32.80911255 81.71925354 C31.83592261 78.95692936 30.85559529 76.19720289 29.875 73.4375 C29.2091596 71.55160022 28.54379051 69.66553396 27.87890625 67.77929688 C26.25804319 63.18425656 24.63077929 58.59152991 23 54 C22.67 54 22.34 54 22 54 Z " fill="#EB4654" transform="translate(1722,141)"/>
<path d="M0 0 C1.65 -2.97 3.3 -5.94 5 -9 C15.89 -9 26.78 -9 38 -9 C38 33.57 38 76.14 38 120 C26.45 120 14.9 120 3 120 C1 115 1 115 1 112 C0.32195313 112.45890625 -0.35609375 112.9178125 -1.0546875 113.390625 C-16.92336843 123.85252545 -32.71951988 127.20000204 -51.5625 123.8125 C-68.99019425 119.92973855 -83.44144267 110.87971786 -93.125 95.66015625 C-103.71269587 77.63839225 -106.39512657 55.80960212 -101.5 35.4375 C-96.57481065 18.79554442 -87.14677742 4.90584958 -72 -4 C-48.15672695 -16.700263 -21.99079389 -15.76006895 0 0 Z M-53.1875 37.1875 C-58.44575363 43.70166197 -59.59486318 50.77729909 -59.34375 59.01171875 C-58.36778197 67.49598628 -54.4031455 74.39886464 -48 80 C-40.93441696 84.55631056 -33.88880383 85.94827759 -25.57421875 84.609375 C-17.86930904 82.74006564 -11.95079615 78.50770793 -7.5859375 71.83984375 C-3.58148331 64.13343012 -2.62525904 55.78053729 -4.6484375 47.2734375 C-7.39887491 39.68034961 -11.88618295 33.37312256 -19.125 29.5625 C-31.45252517 24.19139019 -44.07745181 27.51923807 -53.1875 37.1875 Z " fill="#EE4756" transform="translate(2132,187)"/>
<path d="M0 0 C15.84 0 31.68 0 48 0 C63.7479127 41.28864507 63.7479127 41.28864507 67.03125 50.09765625 C67.44834229 51.2165625 67.86543457 52.33546875 68.29516602 53.48828125 C69.04040257 55.49384198 69.7831943 57.50031337 70.52319336 59.5078125 C71.00477905 60.80525391 71.00477905 60.80525391 71.49609375 62.12890625 C71.76607178 62.86181885 72.0360498 63.59473145 72.31420898 64.34985352 C72.87985829 66.00705666 72.87985829 66.00705666 74 67 C74.21440231 66.3796286 74.42880463 65.7592572 74.64970398 65.12008667 C76.90420105 58.597176 79.15970773 52.07461505 81.41577148 45.55224609 C82.25489178 43.12590132 83.09376428 40.69947084 83.93237305 38.27294922 C91.97413066 15.00501682 91.97413066 15.00501682 95.01953125 6.3828125 C95.38796143 5.33754395 95.7563916 4.29227539 96.13598633 3.21533203 C97 1 97 1 98 0 C99.47354348 -0.09304018 100.95150591 -0.11746265 102.42797852 -0.11352539 C103.36887833 -0.11344986 104.30977814 -0.11337433 105.27919006 -0.11329651 C106.30209641 -0.10813522 107.32500275 -0.10297394 108.37890625 -0.09765625 C109.42070541 -0.0962413 110.46250458 -0.09482635 111.53587341 -0.09336853 C114.87811094 -0.0877508 118.22028257 -0.0751953 121.5625 -0.0625 C123.82226466 -0.05748728 126.08203037 -0.05292398 128.34179688 -0.04882812 C133.89455391 -0.03777561 139.44727225 -0.02102024 145 0 C142.90557445 6.72324476 140.32097972 13.1331024 137.484375 19.57421875 C136.8183577 21.10047379 136.8183577 21.10047379 136.1388855 22.65756226 C135.17988043 24.85476383 134.21924523 27.05125449 133.25714111 29.24710083 C130.6653171 35.1635403 128.08620436 41.08550938 125.5078125 47.0078125 C125.24139828 47.6194607 124.97498405 48.23110889 124.70049667 48.86129189 C117.62763987 65.10425569 110.70954057 81.41268834 103.80371094 97.72729492 C76.00191061 163.32236169 76.00191061 163.32236169 52.5703125 173.00390625 C46.17476531 175.23265754 40.07258499 176.12877333 33.2890625 176.09765625 C32.16709473 176.09515869 31.04512695 176.09266113 29.88916016 176.09008789 C28.4819873 176.08098389 27.07481445 176.07187988 25.625 176.0625 C18.880625 176.0315625 18.880625 176.0315625 12 176 C12 163.13 12 150.26 12 137 C23 136.75 23 136.75 26.41796875 136.70214844 C33.8662736 136.45264598 39.7239404 135.36308964 45.05859375 129.88671875 C45.51363281 129.16097656 45.96867187 128.43523437 46.4375 127.6875 C46.91058594 126.96949219 47.38367187 126.25148438 47.87109375 125.51171875 C49.90796702 120.97985192 50.65283225 118.08181584 49.15991211 113.32104492 C47.78157358 109.9193674 46.28421849 106.58302514 44.75 103.25 C44.16324918 101.94127572 43.57826128 100.63175988 42.99487305 99.3215332 C41.70910908 96.43989083 40.41400478 93.56268698 39.11279297 90.68798828 C36.89157105 85.77202461 34.71033535 80.83882146 32.53515625 75.90234375 C32.15181625 75.03261429 31.76847626 74.16288483 31.3735199 73.26679993 C30.58537406 71.47846736 29.79730417 69.69010133 29.00930786 67.90170288 C26.99970755 63.34419358 24.98405033 58.78936593 22.96875 54.234375 C22.14841658 52.37956654 21.32810423 50.52474877 20.5078125 48.66992188 C19.23937435 45.80187821 17.9707549 42.9339153 16.70166016 40.06616211 C14.13848664 34.27396274 11.57881328 28.48024192 9.02426147 22.68423462 C8.21964035 20.86037675 7.4136815 19.03710843 6.60635376 17.21444702 C5.49067725 14.69523091 4.37955033 12.17405665 3.26953125 9.65234375 C2.93614746 8.9024115 2.60276367 8.15247925 2.25927734 7.37982178 C0 2.2281412 0 2.2281412 0 0 Z " fill="#E7424F" transform="translate(1205,179)"/>
<path d="M0 0 C1.39591965 1.03486211 2.77253556 2.09645867 4.125 3.1875 C4.72699219 3.64253906 5.32898437 4.09757813 5.94921875 4.56640625 C10.34253246 8.34761782 12.84225643 12.96854721 15.4375 18.0625 C15.77531494 18.72233887 16.11312988 19.38217773 16.46118164 20.06201172 C20.31236285 28.01780544 21.429113 35.79011684 21.35205078 44.56274414 C21.35234283 45.4516333 21.35263489 46.34052246 21.35293579 47.25634766 C21.35155484 50.16188706 21.33605239 53.06716227 21.3203125 55.97265625 C21.31657797 58.00003418 21.31373308 60.02741393 21.31173706 62.05479431 C21.30413523 67.36645574 21.28451664 72.67800617 21.2623291 77.98962402 C21.24179604 83.4194997 21.23271944 88.84939348 21.22265625 94.27929688 C21.20126728 104.9154131 21.16717335 115.55144729 21.125 126.1875 C15.0194529 126.21214513 8.91393449 126.23033371 2.80834961 126.24243164 C0.72956844 126.24747288 -1.34920916 126.25430574 -3.42797852 126.26293945 C-6.40902586 126.27501422 -9.39002649 126.28073024 -12.37109375 126.28515625 C-13.77421059 126.29289818 -13.77421059 126.29289818 -15.20567322 126.30079651 C-16.06649002 126.30087204 -16.92730682 126.30094757 -17.81420898 126.30102539 C-18.57587875 126.303246 -19.33754852 126.30546661 -20.12229919 126.30775452 C-21.875 126.1875 -21.875 126.1875 -22.875 125.1875 C-22.98406137 122.73533127 -23.02922125 120.31029124 -23.03271484 117.85717773 C-23.03779556 117.08959641 -23.04287628 116.32201508 -23.04811096 115.53117371 C-23.05884017 113.85766695 -23.06745027 112.18414562 -23.07423019 110.51061821 C-23.08599702 107.85767458 -23.1054474 105.20489539 -23.12734985 102.55201721 C-23.18901635 95.00665816 -23.24289039 87.46131225 -23.27636719 79.91577148 C-23.29737939 75.30440702 -23.33274409 70.6933361 -23.37712479 66.08213997 C-23.39124338 64.32761163 -23.39999784 62.57303128 -23.40317917 60.81844902 C-23.40811895 58.35318481 -23.43135769 55.8886903 -23.45849609 53.42358398 C-23.45548996 52.70585815 -23.45248383 51.98813232 -23.4493866 51.24865723 C-23.55099822 44.99527565 -24.75168127 39.25773576 -29.375 34.75 C-33.6346204 32.08773725 -36.91791255 31.86244509 -41.875 32.1875 C-44.62416323 33.0097268 -47.23156434 34.07840634 -49.875 35.1875 C-50.865 35.5175 -51.855 35.8475 -52.875 36.1875 C-53.99435073 37.83380193 -53.99435073 37.83380193 -54.875 40.1875 C-55.38170731 41.39136353 -55.88841461 42.59522705 -56.41047668 43.83557129 C-57.94983052 47.97234737 -58.31636761 51.86480614 -58.30737305 56.25585938 C-58.3175647 57.01780609 -58.32775635 57.77975281 -58.33825684 58.56478882 C-58.36816626 61.05368615 -58.37761853 63.54219727 -58.38671875 66.03125 C-58.40358186 67.76860816 -58.42173429 69.50595425 -58.44111633 71.24328613 C-58.48844538 75.79370346 -58.51836498 80.34407179 -58.54455566 84.89465332 C-58.57971271 90.36647692 -58.63667647 95.83811248 -58.68994904 101.30978394 C-58.76826236 109.60233148 -58.81901931 117.89463625 -58.875 126.1875 C-73.395 126.1875 -87.915 126.1875 -102.875 126.1875 C-102.875 83.2875 -102.875 40.3875 -102.875 -3.8125 C-92.645 -3.8125 -82.415 -3.8125 -71.875 -3.8125 C-69.895 0.1475 -67.915 4.1075 -65.875 8.1875 C-64.76125 7.135625 -63.6475 6.08375 -62.5 5 C-45.78818562 -9.53839739 -18.824273 -11.7809628 0 0 Z " fill="#EA4553" transform="translate(1580.875,181.8125)"/>
<path d="M0 0 C14.52 0 29.04 0 44 0 C44.05607422 8.07275391 44.05607422 8.07275391 44.11328125 16.30859375 C44.14358017 19.73115097 44.17474056 23.15365739 44.20898438 26.57617188 C44.26317949 32.00086822 44.3142943 37.4254641 44.34643555 42.8503418 C44.37256774 47.22716917 44.41303927 51.60365652 44.46318626 55.98027229 C44.47978823 57.64465141 44.49134384 59.30908925 44.49761391 60.97353935 C44.49459763 75.06789575 44.49459763 75.06789575 49.875 87.9375 C53.54206182 91.49670706 57.35932812 92.30314224 62.375 92.375 C67.84848335 92.24239879 70.73777957 91.47936362 75 88 C78.46120522 82.88409891 79.58732874 78.00432324 79.5300293 71.85571289 C79.53876068 71.0856189 79.54749207 70.3155249 79.55648804 69.52209473 C79.58066573 67.0053713 79.57746729 64.48948014 79.57421875 61.97265625 C79.58667359 60.21527215 79.6010105 58.45790047 79.61714172 56.70054626 C79.65503438 52.09619544 79.67033521 47.49205949 79.67993164 42.88757324 C79.69974028 35.4935194 79.75639096 28.09962805 79.80869484 20.7057476 C79.82407713 18.12144928 79.83123635 15.53723221 79.83683777 12.95289612 C79.84384909 11.38143879 79.85094961 9.80998185 79.8581543 8.23852539 C79.85762558 7.51598068 79.85709686 6.79343597 79.85655212 6.04899597 C79.8867775 1.1132225 79.8867775 1.1132225 81 0 C82.34544327 -0.09785341 83.69592563 -0.12797985 85.04492188 -0.12939453 C85.90251099 -0.13254669 86.7601001 -0.13569885 87.64367676 -0.13894653 C88.57595093 -0.1369223 89.5082251 -0.13489807 90.46875 -0.1328125 C91.89471497 -0.13424759 91.89471497 -0.13424759 93.3494873 -0.13571167 C95.36368882 -0.13639357 97.37789252 -0.13453862 99.39208984 -0.13037109 C102.48670355 -0.12502298 105.5811721 -0.13031577 108.67578125 -0.13671875 C110.62760449 -0.13605797 112.57942764 -0.13477681 114.53125 -0.1328125 C115.46352417 -0.13483673 116.39579834 -0.13686096 117.35632324 -0.13894653 C118.21391235 -0.13579437 119.07150146 -0.13264221 119.95507812 -0.12939453 C120.71373169 -0.12859894 121.47238525 -0.12780334 122.25402832 -0.12698364 C124 0 124 0 125 1 C125.10498201 3.21557206 125.13857543 5.43454009 125.14526367 7.65258789 C125.14862228 8.34879745 125.1519809 9.04500702 125.15544128 9.76231384 C125.16499636 12.08244584 125.16689811 14.40250574 125.16796875 16.72265625 C125.17118337 18.34199554 125.1745476 19.96133454 125.17805481 21.58067322 C125.18406101 24.99137034 125.1858937 28.4020421 125.18530273 31.81274414 C125.18520221 36.13940009 125.19873277 40.46588785 125.21607494 44.79250431 C125.22732611 48.14815481 125.22921781 51.50376672 125.22869301 54.85943413 C125.22985818 56.45109055 125.23419559 58.04274847 125.24202538 59.63438606 C125.33566128 80.67565164 123.58722821 101.00272801 108.7421875 117.34765625 C95.29515086 130.10123584 76.91998677 134.72156186 58.76171875 134.28515625 C41.27961144 132.95992901 25.55968609 127.17817017 13.25 114.375 C0.65300053 98.8407194 -0.47103024 80.90633959 -0.29296875 61.81640625 C-0.28735739 60.02180846 -0.2830946 58.227206 -0.28010559 56.43260193 C-0.26877779 51.76210317 -0.23941808 47.09189468 -0.20599365 42.42150879 C-0.16956268 36.78949734 -0.15607402 31.15738757 -0.13863373 25.52529144 C-0.10977067 17.01666052 -0.05220039 8.50866355 0 0 Z " fill="#E23D4A" transform="translate(910,178)"/>
<path d="M0 0 C10.28098933 9.31803165 12.59922371 18.96646086 13.8359375 32.5703125 C0.3059375 32.5703125 -13.2240625 32.5703125 -27.1640625 32.5703125 C-28.4840625 29.6003125 -29.8040625 26.6303125 -31.1640625 23.5703125 C-34.50454353 21.34332515 -35.69691831 21.2991204 -39.6015625 21.3203125 C-40.54902344 21.31515625 -41.49648437 21.31 -42.47265625 21.3046875 C-45.2230517 21.57613437 -46.85625129 22.07733213 -49.1640625 23.5703125 C-50.70569425 26.653576 -50.46153785 29.17909349 -50.1640625 32.5703125 C-47.49650144 35.10720675 -45.08486251 36.06612218 -41.5234375 36.81640625 C-40.6252832 37.01169922 -39.72712891 37.20699219 -38.80175781 37.40820312 C-37.84881836 37.60607422 -36.89587891 37.80394531 -35.9140625 38.0078125 C-33.92426229 38.44302003 -31.93468007 38.87922537 -29.9453125 39.31640625 C-28.96433594 39.52894043 -27.98335937 39.74147461 -26.97265625 39.96044922 C0.96267199 46.02637846 0.96267199 46.02637846 8.8359375 55.5703125 C15.74427563 67.21445709 17.4079396 78.25904447 15.375 91.59375 C13.14584594 99.90718338 8.19924031 106.85965613 1.8359375 112.5703125 C0.753125 113.5603125 0.753125 113.5603125 -0.3515625 114.5703125 C-15.66663248 125.46102893 -35.05505262 127.49704334 -53.28710938 124.85180664 C-66.80996685 122.52818394 -79.58001956 116.40221151 -87.9375 105.19140625 C-93.63598299 96.31011202 -95.1640625 89.14490139 -95.1640625 78.5703125 C-81.3040625 78.5703125 -67.4440625 78.5703125 -53.1640625 78.5703125 C-52.1740625 81.2103125 -51.1840625 83.8503125 -50.1640625 86.5703125 C-46.49266817 90.24170683 -44.27929615 90.7293052 -39.2890625 90.8203125 C-35.1068682 90.78368014 -32.46671718 90.34028094 -29.1640625 87.5703125 C-27.72671004 84.69560757 -27.78233601 82.75136662 -28.1640625 79.5703125 C-33.03146434 73.69586201 -41.80019422 72.99882501 -48.90625 71.671875 C-64.25587058 68.80312814 -79.12537489 65.59415377 -88.6015625 52.0078125 C-94.15914175 43.37852278 -95.04382587 32.8767126 -93.5390625 22.8828125 C-91.29542309 12.66013759 -86.01631902 3.63505971 -77.36328125 -2.375 C-54.17106014 -16.46125374 -21.97126356 -16.87176041 0 0 Z " fill="#EC4655" transform="translate(1930.1640625,186.4296875)"/>
<path d="M0 0 C0 12.54 0 25.08 0 38 C10.56 38 21.12 38 32 38 C32 49.22 32 60.44 32 72 C22.1 72 12.2 72 2 72 C2.02809815 78.58518468 2.07117602 85.16673169 2.15258789 91.75097656 C2.17575071 93.98950932 2.19015955 96.22815079 2.19555664 98.46679688 C2.20485837 101.68948989 2.24587802 104.91047701 2.29296875 108.1328125 C2.2890361 109.12991241 2.28510345 110.12701233 2.28105164 111.15432739 C2.37536903 115.67029525 2.48601694 118.99053701 5.35668945 122.61669922 C8.91204152 125.82232837 11.48703451 126.12953319 16.10546875 126.31640625 C17.08837891 126.35830078 18.07128906 126.40019531 19.08398438 126.44335938 C20.10814453 126.48267578 21.13230469 126.52199219 22.1875 126.5625 C23.22326172 126.60568359 24.25902344 126.64886719 25.32617188 126.69335938 C27.8839819 126.79944366 30.44188845 126.90150146 33 127 C33.02464775 132.53588533 33.04283496 138.071739 33.05493164 143.60766602 C33.05997244 145.4924373 33.06680498 147.37720465 33.07543945 149.26196289 C33.08751617 151.96501636 33.09323068 154.66801831 33.09765625 157.37109375 C33.10281754 158.21900986 33.10797882 159.06692596 33.11329651 159.9405365 C33.11349195 161.96071068 33.06206211 163.98077934 33 166 C31.0848779 167.9151221 27.56624771 167.18716128 24.95703125 167.203125 C24.2369841 167.20882507 23.51693695 167.21452515 22.77507019 167.22039795 C21.23914057 167.22987472 19.70319038 167.23639249 18.16723633 167.24023438 C15.86695825 167.24977415 13.56763965 167.28069619 11.26757812 167.3125 C-4.1075288 167.42344848 -19.09916851 165.73595223 -30.8125 154.8125 C-42.62325843 142.25052725 -43.17869345 126.44754641 -43.09765625 110.0859375 C-43.0962413 108.99028473 -43.09482635 107.89463196 -43.09336853 106.76577759 C-43.08781771 103.30215605 -43.07527459 99.83860166 -43.0625 96.375 C-43.05747864 94.01171969 -43.05291685 91.64843836 -43.04882812 89.28515625 C-43.03871977 83.52339147 -43.01913503 77.76176998 -43 72 C-50.26 72 -57.52 72 -65 72 C-66.08108108 61.54954955 -66.08108108 61.54954955 -63.2421875 57.48046875 C-60.904229 55.21780044 -58.47716436 53.10839556 -56 51 C-54.90926557 49.81709083 -53.84517773 48.6089175 -52.8125 47.375 C-49.36092716 43.35218783 -45.75017472 39.49057853 -42.125 35.625 C-37.4580289 30.64592024 -32.83816483 25.63392947 -28.29296875 20.54296875 C-24.95578273 16.8419328 -21.56181649 13.19359969 -18.15966797 9.55224609 C-17.67771973 9.03355957 -17.19577148 8.51487305 -16.69921875 7.98046875 C-16.22790527 7.48208496 -15.7565918 6.98370117 -15.27099609 6.47021484 C-13.79968529 4.85345999 -13.79968529 4.85345999 -12.26953125 2.11328125 C-10 0 -10 0 0 0 Z " fill="#E03B47" transform="translate(860,141)"/>
<path d="M0 0 C0.74379913 0.22429688 1.48759827 0.44859375 2.25393677 0.6796875 C4.82025007 1.4567948 7.38278594 2.24565728 9.9453125 3.03515625 C11.80984984 3.60439873 13.67443494 4.17348476 15.5390625 4.74243164 C60.02251818 18.36401354 104.37816458 32.454607 148.5765686 46.97294617 C153.60739373 48.62377423 158.64483786 50.25289252 163.6875 51.8671875 C164.35940369 52.08233505 165.03130737 52.2974826 165.72357178 52.51914978 C168.77250936 53.49465989 171.82227866 54.46748531 174.87304688 55.43725586 C175.89462891 55.76346924 176.91621094 56.08968262 177.96875 56.42578125 C178.84192871 56.70325195 179.71510742 56.98072266 180.61474609 57.26660156 C181.83025146 57.67797363 181.83025146 57.67797363 183.0703125 58.09765625 C183.97990723 58.37963867 184.88950195 58.66162109 185.82666016 58.95214844 C188.0703125 60.09765625 188.0703125 60.09765625 189.01342773 61.76074219 C189.09759857 65.21861001 188.04992484 68.24352285 186.98046875 71.48828125 C186.75709335 72.1928949 186.53371796 72.89750854 186.30357361 73.62347412 C185.5895686 75.86806345 184.86142388 78.10777081 184.1328125 80.34765625 C183.64554455 81.87079341 183.15920536 83.39422802 182.67382812 84.91796875 C181.48339653 88.64806546 180.2802654 92.37384827 179.0703125 96.09765625 C170.88249724 94.72071004 163.1364842 92.35417586 155.25 89.79296875 C153.89353833 89.35705466 152.53689979 88.92169062 151.18009949 88.48683167 C148.28181251 87.55697874 145.38454947 86.62402869 142.48806763 85.68856812 C135.50165095 83.43268088 128.50959477 81.19437078 121.51781654 78.95516777 C119.91450413 78.4416285 118.31125211 77.92790067 116.70805931 77.41398811 C101.52350909 72.54679563 86.31399694 67.76253782 71.09042358 63.01898193 C67.14772244 61.79029449 63.20625677 60.557675 59.26489258 59.32470703 C48.20286892 55.86592055 37.13847222 52.41639473 26.05381107 49.03073215 C20.28468236 47.26855876 14.5200385 45.4921629 8.75656128 43.71157837 C6.35848833 42.97442283 3.95853688 42.24334835 1.55667114 41.51864624 C-1.72352985 40.52864658 -4.99693781 39.51871931 -8.26953125 38.50390625 C-9.24212891 38.21626907 -10.21472656 37.9286319 -11.21679688 37.63227844 C-12.09392334 37.35595078 -12.9710498 37.07962311 -13.87475586 36.79492188 C-15.02082558 36.44572693 -15.02082558 36.44572693 -16.19004822 36.08947754 C-17.9296875 35.09765625 -17.9296875 35.09765625 -18.73141479 33.20256042 C-19.04696901 29.85257139 -17.9241408 26.89272118 -16.91015625 23.7421875 C-16.6915242 23.03994553 -16.47289215 22.33770355 -16.24763489 21.61418152 C-15.78421319 20.13421462 -15.31572637 18.6558255 -14.8425293 17.17895508 C-14.1177022 14.91176618 -13.41227078 12.63918556 -12.70898438 10.36523438 C-12.25634941 8.92802555 -11.8026112 7.49116361 -11.34765625 6.0546875 C-11.13610397 5.37243607 -10.9245517 4.69018463 -10.70658875 3.98725891 C-10.17227692 2.33747138 -9.55778506 0.71406631 -8.9296875 -0.90234375 C-5.82487292 -2.45475104 -3.15848835 -0.97793852 0 0 Z " fill="#E7414F" transform="translate(228.9296875,55.90234375)"/>
<path d="M0 0 C17.51918642 8.64517182 34.83358464 17.6700223 51.95556641 27.07714844 C60.59018755 31.80732693 69.29297472 36.405058 78 41 C88.28925444 46.4309575 98.55778866 51.89101703 108.75073242 57.50146484 C114.13240904 60.45709787 119.54241078 63.3536975 124.97265625 66.21875 C126.36621993 66.9555494 127.75977461 67.69236582 129.15332031 68.42919922 C131.88771497 69.87458607 134.62591954 71.31241317 137.36621094 72.74658203 C138.61537913 73.4063015 139.86440937 74.06628227 141.11328125 74.7265625 C142.22485596 75.31002441 143.33643066 75.89348633 144.48168945 76.49462891 C147 78 147 78 148 80 C145.36 80.66 142.72 81.32 140 82 C139.10759387 86.8479542 139.10759387 86.8479542 139.625 91.6875 C139.74875 92.450625 139.8725 93.21375 140 94 C139.51144531 94.59683594 139.02289063 95.19367188 138.51953125 95.80859375 C136.5692331 98.62123453 136.81310151 99.99224954 137.0625 103.375 C137.23710111 110.00984209 136.30803219 116.22673837 135.125 122.75 C134.95105713 123.73919434 134.77711426 124.72838867 134.59790039 125.74755859 C134.42379639 126.67133301 134.24969238 127.59510742 134.0703125 128.546875 C133.91320801 129.38057617 133.75610352 130.21427734 133.59423828 131.07324219 C133.39813965 131.70907227 133.20204102 132.34490234 133 133 C130.04291642 134.47854179 128.10455315 133.52005822 124.9375 132.75 C123.85339844 132.49734375 122.76929688 132.2446875 121.65234375 131.984375 C120.77707031 131.65953125 119.90179688 131.3346875 119 131 C117.79926778 127.39780334 118.30386856 126.31723898 119.4765625 122.7734375 C119.98896484 121.22462891 119.98896484 121.22462891 120.51171875 119.64453125 C120.87910156 118.56558594 121.24648438 117.48664063 121.625 116.375 C122.14126953 114.79138672 122.14126953 114.79138672 122.66796875 113.17578125 C124.63139989 107.32895862 126.81209291 102.11886719 130.15771484 96.92431641 C131.21254866 94.51440332 130.68164155 93.46894296 130 91 C131.28965176 89.62437146 132.62689293 88.29233607 134 87 C134.65267788 84.93245768 134.65267788 84.93245768 135 83 C133.92338104 83.2476284 133.92338104 83.2476284 132.82501221 83.5002594 C126.0588785 85.05481599 119.29080914 86.6006688 112.52046585 88.13678074 C109.03986972 88.92680955 105.56010614 89.72017831 102.08203125 90.52124023 C98.082965 91.44214065 94.08070438 92.34839618 90.078125 93.25390625 C88.20607391 93.68818687 88.20607391 93.68818687 86.29620361 94.13124084 C85.13530212 94.39158615 83.97440063 94.65193146 82.77832031 94.92016602 C81.75683899 95.15333023 80.73535767 95.38649445 79.68292236 95.62672424 C77.01759212 95.9975524 75.51306881 95.85918618 73 95 C71.77168457 94.63696777 71.77168457 94.63696777 70.51855469 94.26660156 C67.26135348 93.26429985 64.00497936 92.25949877 60.75 91.25 C58.88855347 90.67294312 58.88855347 90.67294312 56.98950195 90.08422852 C39.26910985 84.56927349 21.63870743 78.76962053 4 73 C4.99 72.505 4.99 72.505 6 72 C5.88724731 71.17822266 5.88724731 71.17822266 5.7722168 70.33984375 C3.78370914 55.55003626 2.41991763 40.75243904 1.3125 25.875 C1.21284439 24.55121338 1.21284439 24.55121338 1.11117554 23.20068359 C0.92063123 20.65227559 0.73461941 18.10358734 0.55078125 15.5546875 C0.49467682 14.79509735 0.43857239 14.0355072 0.38076782 13.25289917 C0.07029583 8.82249536 -0.05155827 4.4413242 0 0 Z " fill="#D9353F" transform="translate(343,21)"/>
<path d="M0 0 C14.19 0 28.38 0 43 0 C44.66897843 1.66897843 44.12606558 3.67987002 44.12698364 5.97290039 C44.12980347 7.04984161 44.13262329 8.12678284 44.13552856 9.23635864 C44.13350433 10.42808685 44.1314801 11.61981506 44.12939453 12.84765625 C44.13114685 14.09465302 44.13289917 15.34164978 44.13470459 16.62643433 C44.13836289 20.05610604 44.13748961 23.48571779 44.1343255 26.9153862 C44.13180161 30.49705845 44.13413952 34.07872805 44.13571167 37.66040039 C44.13753328 43.67627424 44.13512728 49.69213583 44.13037109 55.70800781 C44.12492849 62.67272327 44.12669115 69.63740946 44.1321975 76.60212421 C44.13672887 82.57153989 44.13737906 88.54094674 44.13475883 94.51036358 C44.13319619 98.0801663 44.13300193 101.64995524 44.13629532 105.21975708 C44.13970825 109.19729763 44.13498389 113.17480514 44.12939453 117.15234375 C44.13141876 118.34407196 44.13344299 119.53580017 44.13552856 120.76364136 C44.13270874 121.84058258 44.12988892 122.9175238 44.12698364 124.02709961 C44.12660662 124.96879501 44.12622959 125.91049042 44.12584114 126.88072205 C44 129 44 129 43 130 C28.81 130 14.62 130 0 130 C0 87.1 0 44.2 0 0 Z " fill="#ED4755" transform="translate(1966,178)"/>
<path d="M0 0 C14.19 0 28.38 0 43 0 C43 42.9 43 85.8 43 130 C28.81 130 14.62 130 0 130 C-1.66897843 128.33102157 -1.12606558 126.32012998 -1.12698364 124.02709961 C-1.12980347 122.95015839 -1.13262329 121.87321716 -1.13552856 120.76364136 C-1.13350433 119.57191315 -1.1314801 118.38018494 -1.12939453 117.15234375 C-1.13114685 115.90534698 -1.13289917 114.65835022 -1.13470459 113.37356567 C-1.13836289 109.94389396 -1.13748961 106.51428221 -1.1343255 103.0846138 C-1.13180161 99.50294155 -1.13413952 95.92127195 -1.13571167 92.33959961 C-1.13753328 86.32372576 -1.13512728 80.30786417 -1.13037109 74.29199219 C-1.12492849 67.32727673 -1.12669115 60.36259054 -1.1321975 53.39787579 C-1.13672887 47.42846011 -1.13737906 41.45905326 -1.13475883 35.48963642 C-1.13319619 31.9198337 -1.13300193 28.35004476 -1.13629532 24.78024292 C-1.13970825 20.80270237 -1.13498389 16.82519486 -1.12939453 12.84765625 C-1.13243088 11.06006393 -1.13243088 11.06006393 -1.13552856 9.23635864 C-1.13270874 8.15941742 -1.12988892 7.0824762 -1.12698364 5.97290039 C-1.12660662 5.03120499 -1.12622959 4.08950958 -1.12584114 3.11927795 C-1 1 -1 1 0 0 Z " fill="#E94452" transform="translate(1408,178)"/>
<path d="M0 0 C3.96 0 7.92 0 12 0 C16.78158296 16.55163332 20.86930909 33.27709108 25 50 C27.41244976 41.41224529 29.79156226 32.8176347 32.078125 24.1953125 C32.25702271 23.52120331 32.43592041 22.84709412 32.62023926 22.15255737 C33.52346517 18.74690909 34.42364935 15.34048735 35.3203125 11.93310547 C35.65289063 10.67643066 35.98546875 9.41975586 36.328125 8.125 C36.6262207 6.99320312 36.92431641 5.86140625 37.23144531 4.6953125 C38 2 38 2 39 0 C42.96 0 46.92 0 51 0 C55.29 16.17 59.58 32.34 64 49 C66.32167203 42.17897177 66.32167203 42.17897177 68.25854492 35.30639648 C68.55851631 34.10617104 68.55851631 34.10617104 68.86454773 32.88169861 C69.06780167 32.05319901 69.2710556 31.2246994 69.48046875 30.37109375 C69.69818436 29.49598648 69.91589996 28.62087921 70.14021301 27.71925354 C70.82599945 24.95948895 71.50683329 22.19853125 72.1875 19.4375 C72.6552702 17.55135073 73.12336618 15.66528222 73.59179688 13.77929688 C74.73162901 9.18712201 75.86702518 4.59387127 77 0 C80.96 0 84.92 0 89 0 C87.51214764 8.00256392 85.51367823 15.78724828 83.33984375 23.62890625 C82.9899086 24.89975571 82.63997345 26.17060516 82.2794342 27.47996521 C81.54460316 30.14719007 80.80728323 32.81371022 80.06811523 35.47973633 C79.11960229 38.90158682 78.17737261 42.32513144 77.23692989 45.7492075 C76.33701675 49.0225159 75.43197449 52.29439843 74.52734375 55.56640625 C74.18879868 56.79855362 73.8502536 58.03070099 73.50144958 59.30018616 C73.18764847 60.42903732 72.87384735 61.55788849 72.55053711 62.72094727 C72.27455185 63.71892838 71.99856659 64.71690948 71.71421814 65.74513245 C71 68 71 68 70 69 C68.14712498 69.07226502 66.29166122 69.0838122 64.4375 69.0625 C63.42558594 69.05347656 62.41367187 69.04445313 61.37109375 69.03515625 C60.58863281 69.02355469 59.80617188 69.01195312 59 69 C53.81399215 53.15531271 49.4687182 37.05758433 45 21 C39.78804634 36.85302571 35.36607087 52.89872849 31 69 C27.04 69 23.08 69 19 69 C12.37328006 46.07190836 5.79876044 23.15420541 0 0 Z " fill="#505050" transform="translate(850,394)"/>
<path d="M0 0 C2.475 0.495 2.475 0.495 5 1 C6.51912761 13.0722162 7.45874406 25.14341801 8.24511719 37.28442383 C8.75966609 45.03875713 9.40796439 52.74943382 10.390625 60.45898438 C10.91596975 64.665979 11.07666315 68.76162306 11 73 C4.33267196 72.40991445 -1.63544651 70.74443099 -7.9921875 68.69140625 C-9.01933868 68.36462387 -10.04648987 68.03784149 -11.10476685 67.70115662 C-13.26234965 67.0127832 -15.41881966 66.32091316 -17.57421875 65.62573242 C-20.88230832 64.56014588 -24.19470575 63.50885388 -27.5078125 62.45898438 C-29.60704169 61.78730427 -31.70600963 61.11480699 -33.8046875 60.44140625 C-34.79733612 60.12675919 -35.78998474 59.81211212 -36.81271362 59.4879303 C-37.72771637 59.19099777 -38.64271912 58.89406525 -39.58544922 58.58813477 C-40.79501785 58.19961082 -40.79501785 58.19961082 -42.02902222 57.80323792 C-44 57 -44 57 -46 55 C-44.88285263 53.67973492 -43.76568584 52.35948627 -42.6484375 51.03930664 C-41.65983637 49.87079464 -40.67156439 48.70200411 -39.68359375 47.53295898 C-37.19882736 44.59367173 -34.71027496 41.65794947 -32.20703125 38.734375 C-26.98002128 32.61660051 -21.93164206 26.39768279 -16.99975586 20.03955078 C-13.51214895 15.57496158 -9.82583095 11.33926067 -5.97265625 7.18359375 C-3.87732541 4.86420773 -1.93053786 2.45744081 0 0 Z " fill="#C22026" transform="translate(338,20)"/>
<path d="M0 0 C4.41349943 2.85460284 7.17143867 6.0222497 9 11 C9.1875 14.375 9.1875 14.375 9 17 C5.62112287 17.28527105 2.36826645 17.45018698 -1 17 C-3.18182341 14.56149148 -4 13.2678851 -4 10 C-7.79052724 8.25106188 -10.83309085 7.70344481 -15 7.6875 C-16.010625 7.67074219 -17.02125 7.65398437 -18.0625 7.63671875 C-21.44639709 8.05520602 -23.27465492 8.9796487 -26 11 C-28.16617415 14.24926122 -28.21335669 14.5985242 -27.625 18.1875 C-27.41875 19.445625 -27.2125 20.70375 -27 22 C-23.86407043 23.37643286 -20.71304911 24.39127564 -17.41796875 25.296875 C-16.56783203 25.5340625 -15.71769531 25.77125 -14.84179688 26.015625 C-13.08712905 26.50109601 -11.32929266 26.97527143 -9.56835938 27.4375 C-1.79301295 29.64393793 4.42102005 33.17864578 9 40 C10.61021592 44.83064775 10.95802887 50.1478112 9.31640625 55.03515625 C6.12099421 61.06798812 0.99113295 65.32209468 -5.46875 67.49609375 C-14.93968017 69.3815104 -25.42323995 69.09414202 -33.76953125 63.8984375 C-38.70042035 60.17927541 -40.62970154 56.08713678 -41.6875 50.125 C-41.790625 49.09375 -41.89375 48.0625 -42 47 C-38.04 47 -34.08 47 -30 47 C-29.62875 48.093125 -29.2575 49.18625 -28.875 50.3125 C-27.64694794 53.09533357 -26.99499062 54.00388227 -24.5 55.9375 C-18.35758886 57.80216052 -12.50889554 57.88031423 -6.4375 55.75 C-3.81881205 53.86991634 -2.77848001 53.11392003 -2 50 C-1.67451168 46.44336774 -1.67451168 46.44336774 -3 43 C-8.45324972 39.21611244 -14.82623488 37.81333557 -21.1262207 35.92529297 C-28.59841308 33.62223802 -34.57633712 30.72396757 -39 24 C-40.7914557 18.62563291 -40.71176628 13.93205434 -38.375 8.8125 C-35.44510396 3.56952813 -30.93985581 -0.29790789 -25.3125 -2.49609375 C-16.87407275 -4.33487266 -7.67309797 -4.04581529 0 0 Z " fill="#505050" transform="translate(1244,396)"/>
<path d="M0 0 C4.29 0 8.58 0 13 0 C16.40101823 7.36510267 19.23203264 14.8674451 21.984375 22.49609375 C22.44929003 23.77888372 22.9144018 25.0616024 23.37969971 26.34425354 C24.34656548 29.01186131 25.31109751 31.68029764 26.27392578 34.34936523 C27.50915354 37.77296846 28.7502595 41.19440669 29.9930687 44.61526394 C30.95103243 47.25404257 31.90595007 49.89391533 32.85993195 52.53413582 C33.53850848 54.41045958 34.2196474 56.285856 34.90081787 58.16123962 C35.51210541 59.85924461 35.51210541 59.85924461 36.13574219 61.59155273 C36.49674011 62.59032944 36.85773804 63.58910614 37.22967529 64.6181488 C38 67 38 67 38 69 C34.04 69 30.08 69 26 69 C24.99600476 66.37646482 23.99665555 63.75132205 23 61.125 C22.71382812 60.37863281 22.42765625 59.63226563 22.1328125 58.86328125 C20 53.2265625 20 53.2265625 20 51 C11.42 51.33 2.84 51.66 -6 52 C-7.98 57.61 -9.96 63.22 -12 69 C-15.96 69 -19.92 69 -24 69 C-23.22135919 65.10679593 -22.31316799 61.80096441 -20.99047852 58.09570312 C-20.57657364 56.93099487 -20.16266876 55.76628662 -19.73622131 54.56628418 C-19.28388459 53.30456968 -18.83144369 52.04289252 -18.37890625 50.78125 C-17.91402683 49.47767769 -17.44942649 48.17400583 -16.98509216 46.87023926 C-16.01290832 44.1427199 -15.03848863 41.41601415 -14.06225586 38.68994141 C-12.81400595 35.20421829 -11.56958961 31.71714317 -10.32663059 28.22953033 C-9.13703232 24.8921357 -7.94555183 21.55541406 -6.75390625 18.21875 C-6.52822023 17.58634903 -6.30253422 16.95394806 -6.07000923 16.30238342 C-5.42734202 14.50265292 -4.78315912 12.70346387 -4.13891602 10.90429688 C-3.7733107 9.88235229 -3.40770538 8.86040771 -3.03102112 7.80749512 C-2.06863178 5.18688599 -1.03682443 2.59206106 0 0 Z M6 14 C3.03 22.91 0.06 31.82 -3 41 C3.27 41 9.54 41 16 41 C15.03384525 35.20307149 13.50059867 30.19391069 11.5625 24.6875 C11.24990234 23.76904297 10.93730469 22.85058594 10.61523438 21.90429688 C10.31037109 21.03224609 10.00550781 20.16019531 9.69140625 19.26171875 C9.41498291 18.46725342 9.13855957 17.67278809 8.85375977 16.85424805 C8.14844204 14.81363529 8.14844204 14.81363529 6 14 Z " fill="#505050" transform="translate(2014,394)"/>
<path d="M0 0 C3.63 0 7.26 0 11 0 C11 22.77 11 45.54 11 69 C7.37 69 3.74 69 0 69 C-0.33 67.02 -0.66 65.04 -1 63 C-2.11375 64.175625 -2.11375 64.175625 -3.25 65.375 C-6.97598096 68.93161819 -9.59247405 70.29287379 -14.75 70.375 C-20.84958103 70.22251047 -25.13924348 68.50397283 -29.72265625 64.4921875 C-36.54029025 57.2892818 -37.60023157 49.15908662 -37.33984375 39.50390625 C-36.61494377 32.02993753 -34.70063608 26.12860945 -29.125 20.9375 C-24.09740913 17.06013287 -19.52434672 15.51501633 -13.09375 15.67578125 C-9.36347828 16.25341661 -6.07750639 17.83996618 -3 20 C-2.34 20.99 -1.68 21.98 -1 23 C-0.67 15.41 -0.34 7.82 0 0 Z M-23 30 C-26.62774302 36.00454018 -26.83237092 42.10321241 -26 49 C-24.76661256 52.95948993 -23.01173716 55.91848786 -20.1875 58.9375 C-15.85891266 61.03995671 -12.38702089 61.4623403 -7.8125 59.9375 C-3.41010707 56.90474043 -1.01570879 53.21397181 0 48 C0.6860374 40.24250014 -0.00433767 33.63110585 -5.0625 27.5 C-11.24286992 24.34406642 -18.33761712 24.48991115 -23 30 Z " fill="#505050" transform="translate(1093,394)"/>
<path d="M0 0 C3.63 0 7.26 0 11 0 C11 22.77 11 45.54 11 69 C7.7 69 4.4 69 1 69 C0.67 67.02 0.34 65.04 0 63 C-0.47050781 63.42152344 -0.94101563 63.84304688 -1.42578125 64.27734375 C-2.04839844 64.82519531 -2.67101563 65.37304688 -3.3125 65.9375 C-3.92738281 66.48277344 -4.54226563 67.02804687 -5.17578125 67.58984375 C-9.48444441 70.92052341 -14.82026537 70.5456397 -20 70 C-27.14809315 67.83578495 -31.08813632 63.34576143 -34.75 56.9375 C-37.93724048 48.70531317 -38.01057235 38.27563725 -35 30 C-32.04829848 24.2062577 -28.78634963 20.01896502 -23 17 C-17.46932595 15.32266443 -12.01545169 15.21621323 -6.625 17.3125 C-4 19 -4 19 -1 22 C-0.67 14.74 -0.34 7.48 0 0 Z M-23 31 C-26.49058512 37.40368373 -26.62115696 43.98224002 -25 51 C-23.29535723 54.47781208 -23.29535723 54.47781208 -21 57 C-20.566875 57.598125 -20.13375 58.19625 -19.6875 58.8125 C-16.91757777 60.76170453 -14.32752074 60.82788686 -11 61 C-6.00064796 59.92871028 -3.9139419 56.9661987 -1 53 C0.14330513 49.57008462 0.20381651 46.8013584 0.25 43.1875 C0.27578125 41.98480469 0.3015625 40.78210938 0.328125 39.54296875 C-0.11461205 34.76246272 -1.96325883 31.57584658 -4.5625 27.625 C-10.97861106 23.34759263 -18.26767189 25.3442908 -23 31 Z " fill="#505050" transform="translate(1390,394)"/>
<path d="M0 0 C36.81395349 0 36.81395349 0 45 8 C48.81241115 14.31019777 50.17000366 20.99307258 48.46875 28.2734375 C46.56804337 34.49205377 44.19482662 38.83067034 38.5 42.25 C34.17119736 44.41440132 31.04173347 45.12847265 26.234375 45.09765625 C25.43225586 45.09515869 24.63013672 45.09266113 23.80371094 45.09008789 C22.79598633 45.08098389 21.78826172 45.07187988 20.75 45.0625 C17.5325 45.041875 14.315 45.02125 11 45 C11 52.92 11 60.84 11 69 C7.37 69 3.74 69 0 69 C0 46.23 0 23.46 0 0 Z M11 9 C11 17.58 11 26.16 11 35 C13.866875 35.061875 16.73375 35.12375 19.6875 35.1875 C20.58170654 35.21481201 21.47591309 35.24212402 22.3972168 35.27026367 C27.09466367 35.31925577 30.23015955 35.11239147 34 32 C36.90259491 28.98282897 37.45349824 26.7752817 37.5 22.625 C37.3878251 18.97199993 37.15201974 16.39750163 34.9375 13.4375 C27.8101773 7.52333861 19.88256025 8.83080838 11 9 Z " fill="#505050" transform="translate(1587,394)"/>
<path d="M0 0 C14.19 0 28.38 0 43 0 C43 12.54 43 25.08 43 38 C28.81 38 14.62 38 0 38 C0 25.46 0 12.92 0 0 Z " fill="#ED4755" transform="translate(1966,125)"/>
<path d="M0 0 C14.19 0 28.38 0 43 0 C43 12.54 43 25.08 43 38 C28.81 38 14.62 38 0 38 C0 25.46 0 12.92 0 0 Z " fill="#E94452" transform="translate(1408,125)"/>
<path d="M0 0 C3.63 0 7.26 0 11 0 C11.33 7.26 11.66 14.52 12 22 C14.97 19.525 14.97 19.525 18 17 C20.109375 16.20703125 20.109375 16.20703125 22 16 C22.68578125 15.92136719 23.3715625 15.84273438 24.078125 15.76171875 C29.91760072 15.56216832 34.18296951 16.6215397 39 20 C42.64091926 23.82763307 44.12970591 26.84557891 44.11352539 32.10424805 C44.11344986 32.92487228 44.11337433 33.74549652 44.11329651 34.59098816 C44.10813522 35.47232925 44.10297394 36.35367035 44.09765625 37.26171875 C44.0962413 38.16751175 44.09482635 39.07330475 44.09336853 40.00654602 C44.08777001 42.90023091 44.07521781 45.79383849 44.0625 48.6875 C44.05748481 50.64908742 44.05292193 52.61067606 44.04882812 54.57226562 C44.03780107 59.38154021 44.02053747 64.190757 44 69 C40.7 69 37.4 69 34 69 C33.970271 67.51004517 33.970271 67.51004517 33.93994141 65.98999023 C33.86345117 62.27913506 33.77480342 58.56864997 33.68261719 54.8581543 C33.64450581 53.25699204 33.60962287 51.65574937 33.578125 50.05444336 C33.53208389 47.74303586 33.47415792 45.43217356 33.4140625 43.12109375 C33.40251129 42.41351425 33.39096008 41.70593475 33.37905884 40.97691345 C33.24209418 36.28835562 32.65775884 32.35971759 31 28 C25.97883247 26.32627749 20.9954323 26.19333588 16.0625 28.1875 C12.6262906 31.20719917 12.06998387 34.19036273 11.68115234 38.6887207 C11.63991025 40.10082865 11.60866539 41.51325401 11.5859375 42.92578125 C11.56657135 43.67337204 11.5472052 44.42096283 11.5272522 45.19120789 C11.46776082 47.56485806 11.42119408 49.93855754 11.375 52.3125 C11.33679211 53.92775482 11.29773875 55.54298987 11.2578125 57.15820312 C11.1620847 61.1053071 11.07794233 65.05250639 11 69 C7.37 69 3.74 69 0 69 C0 46.23 0 23.46 0 0 Z " fill="#505050" transform="translate(718,394)"/>
<path d="M0 0 C3.92672723 3.246733 5.72156082 7.14136576 7 12 C7.25368361 14.9704655 7.23374552 17.91899766 7.1953125 20.8984375 C7.1924826 21.73339752 7.18965271 22.56835754 7.18673706 23.42861938 C7.17560301 26.07756291 7.15051127 28.72615984 7.125 31.375 C7.11496143 33.17838051 7.10583712 34.98176636 7.09765625 36.78515625 C7.0756859 41.19023633 7.04120321 45.59505953 7 50 C3.37 50 -0.26 50 -4 50 C-4.495 48.02 -4.495 48.02 -5 46 C-5.65742188 46.54140625 -5.65742188 46.54140625 -6.328125 47.09375 C-12.35931694 51.50681728 -17.67421335 51.9299306 -25 51 C-30.29805465 49.2660912 -32.80032773 46.38812197 -36 42 C-37.68774953 36.93675141 -37.86163929 32.09909379 -35.5625 27.25 C-32.24584355 22.2693555 -27.51611652 20.73242562 -21.82470703 19.546875 C-16.56940214 18.56064185 -11.29310965 17.75371141 -6 17 C-5.31373216 14.63815692 -5.31373216 14.63815692 -5 12 C-6.89385913 9.02208359 -6.89385913 9.02208359 -10 7 C-14.73778987 6.39700856 -18.6659583 6.98416665 -23 9 C-24.42055068 11.00136244 -24.42055068 11.00136244 -25 13 C-32.75 12.125 -32.75 12.125 -35 11 C-33.77015892 5.71168338 -31.53543538 2.84220617 -27 0 C-18.57951496 -4.51742759 -8.46925206 -4.46895316 0 0 Z M-15.5625 27.3125 C-16.23474609 27.43044922 -16.90699219 27.54839844 -17.59960938 27.66992188 C-20.39810312 28.21183477 -22.61968259 28.7222229 -24.94140625 30.41796875 C-26.65151532 32.97366681 -26.3721874 35.02250078 -26 38 C-24.45493534 40.03667615 -23.27853844 40.86073078 -21 42 C-16.26906912 42.57717357 -12.85282657 42.43416625 -8.5625 40.25 C-5.47255505 37.60233391 -5.47255505 37.60233391 -4 34 C-3.85510653 31.30912124 -3.91001177 28.69964689 -4 26 C-8.00181804 26 -11.65763115 26.55562571 -15.5625 27.3125 Z " fill="#505050" transform="translate(2168,413)"/>
<path d="M0 0 C4.12921148 3.41965724 6.39957282 7.95865437 8 13 C8.495 19.435 8.495 19.435 9 26 C-3.21 26 -15.42 26 -28 26 C-25.71016056 34.48228275 -25.71016056 34.48228275 -20 39 C-16.38069302 40.20643566 -13.80768995 40.32268559 -10 40 C-5.75971381 37.7412063 -5.75971381 37.7412063 -3 34 C0.63 34.33 4.26 34.66 8 35 C6.50483783 40.35766446 4.90803703 44.30915271 -0.0625 47.19921875 C-7.79516016 50.73096257 -16.12744859 51.47059135 -24.3125 48.9375 C-29.94342971 46.43877494 -34.34344239 41.97622408 -36.875 36.375 C-40.05283405 26.84149785 -39.72182738 18.36047574 -36 9 C-32.82755917 3.20209089 -28.89349922 -0.85351918 -22.6875 -3.3125 C-14.29113308 -4.87792434 -7.56388945 -4.27869754 0 0 Z M-25.3125 10.375 C-27.35755487 13.20486065 -27.35755487 13.20486065 -28 18 C-19.42 18 -10.84 18 -2 18 C-3.05763718 11.56973468 -3.05763718 11.56973468 -7 7 C-13.92991268 3.26850856 -19.87868868 4.79432891 -25.3125 10.375 Z " fill="#505050" transform="translate(1451,414)"/>
<path d="M0 0 C5.55825279 3.77604749 8.69944063 7.74362387 10.6875 14.25 C11.16751029 18.47409053 11 22.74872364 11 27 C-0.88 27.33 -12.76 27.66 -25 28 C-22.96896279 36.32917961 -22.96896279 36.32917961 -20 39 C-15.87163329 41.06418336 -12.57663035 41.31028002 -8 41 C-4.01933905 39.42275698 -2.39332726 38.58999089 0 35 C3.3 35.33 6.6 35.66 10 36 C9.57955231 40.76507381 7.5291345 43.90352382 4 47 C-2.71943852 51.54961983 -10.10056096 52.10113393 -18 51 C-24.58766811 48.89945454 -29.20421084 45.75119569 -33 40 C-35.67553553 34.70113451 -36.51991047 30.53462831 -36.4375 24.625 C-36.43137695 23.87766602 -36.42525391 23.13033203 -36.41894531 22.36035156 C-36.25424538 16.54010947 -35.23184621 11.93164076 -32 7 C-31.401875 6.071875 -30.80375 5.14375 -30.1875 4.1875 C-22.00483784 -3.99516216 -10.11675641 -5.50137263 0 0 Z M-22 10 C-24.64647596 13.41480769 -25 14.58540522 -25 19 C-16.75 19 -8.5 19 0 19 C-0.30662786 12.24435254 -0.30662786 12.24435254 -3.5625 9.125 C-10.10683968 4.41244918 -15.80271703 5.38241661 -22 10 Z " fill="#505050" transform="translate(809,413)"/>
<path d="M0 0 C2.57124007 2.49561536 3.94844696 4.53891517 4.36550903 8.13800049 C4.3588472 9.24386505 4.3588472 9.24386505 4.35205078 10.37207031 C4.35189972 11.21263977 4.35174866 12.05320923 4.35159302 12.91925049 C4.34127045 13.81730408 4.33094788 14.71535767 4.3203125 15.640625 C4.3174826 16.5671991 4.31465271 17.49377319 4.31173706 18.44842529 C4.30055611 21.40324909 4.27545527 24.35776805 4.25 27.3125 C4.23996751 29.31770395 4.23084213 31.32291266 4.22265625 33.328125 C4.20062358 38.23970051 4.16610795 43.15104859 4.125 48.0625 C0.825 48.0625 -2.475 48.0625 -5.875 48.0625 C-6.205 46.4125 -6.535 44.7625 -6.875 43.0625 C-7.431875 43.68125 -7.98875 44.3 -8.5625 44.9375 C-13.21530723 49.21305259 -17.99733697 49.51058999 -24.0859375 49.37109375 C-29.03129434 48.82391841 -32.82709549 47.24963881 -36.25390625 43.58984375 C-39.4806588 38.83403773 -39.78563926 33.63671609 -38.875 28.0625 C-36.62885432 23.48701805 -34.41699875 21.25239225 -29.875 19.0625 C-26.13639865 18.13386414 -22.36216859 17.49976956 -18.5625 16.875 C-17.53576172 16.69775391 -16.50902344 16.52050781 -15.45117188 16.33789062 C-12.92720315 15.90353322 -10.40200878 15.4787394 -7.875 15.0625 C-7.45420979 10.24060878 -7.45420979 10.24060878 -9.4375 6.125 C-12.81417898 4.65311429 -15.21795541 4.68418504 -18.875 5.0625 C-22.85566095 6.63974302 -24.48167274 7.47250911 -26.875 11.0625 C-29.845 10.7325 -32.815 10.4025 -35.875 10.0625 C-36.875 6.0625 -36.875 6.0625 -35.7578125 4.02734375 C-26.24235819 -6.94714689 -11.9630825 -8.06207734 0 0 Z M-15.75 24.875 C-16.57886719 25.04064453 -17.40773438 25.20628906 -18.26171875 25.37695312 C-19.05964844 25.54775391 -19.85757812 25.71855469 -20.6796875 25.89453125 C-21.41171387 26.04639893 -22.14374023 26.1982666 -22.89794922 26.35473633 C-25.2566538 27.1991281 -26.35178588 28.08102829 -27.875 30.0625 C-28.45833333 33.5625 -28.45833333 33.5625 -27.875 37.0625 C-25.08634673 39.78175239 -22.91893316 40.53390315 -19.0625 40.625 C-14.17460397 40.48761831 -11.67538965 39.04827483 -8.15234375 35.765625 C-5.27803837 31.93321783 -5.78606995 27.68686237 -5.875 23.0625 C-9.14413879 23.0625 -12.56587482 24.20039721 -15.75 24.875 Z " fill="#505050" transform="translate(1812.875,414.9375)"/>
<path d="M0 0 C5.26318484 3.64374335 8.51359725 7.63922903 10.58984375 13.73046875 C12.30370381 23.21382775 12.07984297 33.68408925 6.78125 41.88671875 C2.44113223 47.63737479 -2.80095488 50.39932688 -9.89453125 51.4140625 C-17.24171721 51.77246182 -23.04145322 50.39999451 -29 46 C-35.23196272 39.70339036 -37.39595259 32.99282398 -37.375 24.1875 C-37.37338867 23.48262451 -37.37177734 22.77774902 -37.37011719 22.05151367 C-37.18352378 14.10208553 -34.65863749 7.65863749 -29 2 C-20.16231624 -4.10565974 -9.59215591 -5.1475147 0 0 Z M-21 9 C-25.46057176 13.82223974 -26.16738843 17.34814429 -26.25 23.8125 C-26.27578125 25.01519531 -26.3015625 26.21789062 -26.328125 27.45703125 C-25.88543881 32.23698808 -24.09905604 35.43595871 -21.375 39.3125 C-17.81195002 41.84414078 -14.31984166 42.19354129 -10 42 C-5.81442196 40.32576878 -3.56055439 37.65793485 -1 34 C0.14330513 30.57008462 0.20381651 27.8013584 0.25 24.1875 C0.27578125 22.98480469 0.3015625 21.78210938 0.328125 20.54296875 C-0.1358999 15.53260464 -1.75893926 12.27553465 -5.25 8.6875 C-10.96840665 5.17847774 -15.46141624 5.30761082 -21 9 Z " fill="#505050" transform="translate(977,413)"/>
<path d="M0 0 C5.99444848 4.25641312 9.36398838 9.88480155 11 17 C12.13969988 27.23379991 10.6567374 35.19965792 5.1875 43.875 C-0.09870089 49.01016658 -5.90591744 51.11286065 -13.1875 51.3125 C-19.90925846 51.21404548 -25.02992499 49.72020254 -30.04296875 45.12890625 C-36.32605229 38.27581101 -38.36172843 31.54027983 -38.21875 22.2109375 C-37.39129778 13.84775968 -34.18558881 7.11479795 -28.1875 1.25 C-19.83535347 -4.64563285 -8.98657331 -4.60007409 0 0 Z M-22 9 C-26.61019053 14.65479563 -27.4799686 20.92046317 -27 28 C-25.67576868 33.47418459 -23.64037832 37.5970559 -19 41 C-14.8910378 42.3668242 -11.85949043 42.28098726 -7.75 40.9375 C-3.65205872 38.0503141 -1.57294266 34.71882798 0 30 C0.58681722 23.01461805 0.19499677 17.27982123 -3 11 C-5.71837325 8.05509564 -7.51468694 7.13480918 -11.375 6.0625 C-15.82723665 5.9857373 -18.18562199 6.69697932 -22 9 Z " fill="#505050" transform="translate(1948,413)"/>
<path d="M0 0 C6.44291968 4.48455021 9.78638085 8.69475057 11.546875 16.390625 C13.06697125 25.1442827 12.16162654 33.0941372 8 41 C4.15195826 46.33854905 -0.50854853 49.74029526 -7 51 C-14.73726202 51.80313685 -21.49234392 51.24218705 -27.90625 46.62890625 C-33.77843041 41.44098415 -36.39896546 34.89706554 -37.34375 27.19921875 C-37.63090831 18.74001367 -36.14968777 11.18479844 -30.6875 4.5625 C-22.60489282 -3.89524929 -10.24536157 -5.70755379 0 0 Z M-21 9 C-26.08738239 15.29228874 -26.64938149 21.13658047 -26 29 C-25.07949017 33.24739181 -23.72204331 36.19543746 -20.8125 39.4375 C-17.18524239 41.45264312 -14.14712962 42.19554246 -10 42 C-4.79027847 40.29682181 -2.61492539 37.74560533 0 33 C1.97615263 26.54805798 1.62826933 19.9811648 -1.02734375 13.79296875 C-2.6268551 10.84447192 -4.32045866 9.00965601 -7 7 C-12.55241484 5.35484005 -16.0315771 6.09394133 -21 9 Z " fill="#505050" transform="translate(1680,413)"/>
<path d="M0 0 C3.63 0 7.26 0 11 0 C11.01401855 1.64983887 11.01401855 1.64983887 11.02832031 3.33300781 C11.06822937 7.41854166 11.13399004 11.50332319 11.20751953 15.58837891 C11.23572397 17.35553311 11.25694118 19.12281334 11.27099609 20.89013672 C11.29243358 23.43262222 11.33908503 25.97359338 11.390625 28.515625 C11.39185364 29.30430969 11.39308228 30.09299438 11.39434814 30.90557861 C11.48921947 34.46814724 11.68755415 36.58444538 13.85839844 39.47167969 C16.68449769 41.48848102 18.52703629 41.93054073 22 42 C26.19402321 40.43752077 28.78756078 38.89835374 31 35 C31.3245487 32.24747515 31.48808803 29.70799355 31.51171875 26.953125 C31.52966995 26.18192322 31.54762115 25.41072144 31.56611633 24.6161499 C31.62015769 22.16082168 31.6540942 19.70568714 31.6875 17.25 C31.72067864 15.58200434 31.75516882 13.91403421 31.79101562 12.24609375 C31.87588022 8.1642024 31.94272026 4.08236786 32 0 C35.63 0 39.26 0 43 0 C43 17.16 43 34.32 43 52 C39.37 52 35.74 52 32 52 C31.505 49.525 31.505 49.525 31 47 C30.29875 47.61875 29.5975 48.2375 28.875 48.875 C23.44186838 52.89079294 18.94951802 53.40278844 12.3984375 52.52734375 C8.18599448 51.60115514 5.32416209 49.95843797 2.88238525 46.3470459 C-0.02167793 40.93780548 -0.54115741 36.54732206 -0.390625 30.46875 C-0.38496521 29.59222778 -0.37930542 28.71570557 -0.37347412 27.81262207 C-0.35126636 25.04116812 -0.3011016 22.27105635 -0.25 19.5 C-0.22991474 17.60939381 -0.21166754 15.71876714 -0.1953125 13.828125 C-0.15145307 9.21824094 -0.08253652 4.6093472 0 0 Z " fill="#505050" transform="translate(1300,411)"/>
<path d="M0 0 C3.53284575 2.47778775 5.37912399 5.16862197 6.7265625 9.2109375 C6.81223496 10.57685933 6.84429897 11.94658608 6.84008789 13.31518555 C6.84001236 14.13580978 6.83993683 14.95643402 6.83985901 15.80192566 C6.83469772 16.68326675 6.82953644 17.56460785 6.82421875 18.47265625 C6.8228038 19.37844925 6.82138885 20.28424225 6.81993103 21.21748352 C6.81433251 24.11116841 6.80178031 27.00477599 6.7890625 29.8984375 C6.78404731 31.86002492 6.77948443 33.82161356 6.77539062 35.78320312 C6.76436357 40.59247771 6.74709997 45.4016945 6.7265625 50.2109375 C3.4265625 50.2109375 0.1265625 50.2109375 -3.2734375 50.2109375 C-3.3031665 48.72098267 -3.3031665 48.72098267 -3.33349609 47.20092773 C-3.40998633 43.49007256 -3.49863408 39.77958747 -3.59082031 36.0690918 C-3.62893169 34.46792954 -3.66381463 32.86668687 -3.6953125 31.26538086 C-3.74135361 28.95397336 -3.79927958 26.64311106 -3.859375 24.33203125 C-3.87092621 23.62445175 -3.88247742 22.91687225 -3.89437866 22.18785095 C-4.03134332 17.49929312 -4.61567866 13.57065509 -6.2734375 9.2109375 C-9.04395931 8.28743023 -10.84032508 8.04764165 -13.7109375 8.0234375 C-14.85369141 8.00216797 -14.85369141 8.00216797 -16.01953125 7.98046875 C-18.60677854 8.24502263 -20.11539725 8.75849852 -22.2734375 10.2109375 C-24.88181802 13.94897306 -24.62144068 18.09130648 -24.6875 22.4765625 C-24.70686615 23.26996033 -24.7262323 24.06335815 -24.7461853 24.88079834 C-24.80582111 27.40740307 -24.85230193 29.93405375 -24.8984375 32.4609375 C-24.93663205 34.17710287 -24.97568465 35.89324937 -25.015625 37.609375 C-25.11150936 41.80974206 -25.19559917 46.01019884 -25.2734375 50.2109375 C-28.9034375 50.2109375 -32.5334375 50.2109375 -36.2734375 50.2109375 C-36.2734375 33.0509375 -36.2734375 15.8909375 -36.2734375 -1.7890625 C-32.9734375 -1.7890625 -29.6734375 -1.7890625 -26.2734375 -1.7890625 C-25.9434375 0.1909375 -25.6134375 2.1709375 -25.2734375 4.2109375 C-24.5515625 3.4271875 -23.8296875 2.6434375 -23.0859375 1.8359375 C-16.32411606 -4.47509584 -7.87347577 -4.42294854 0 0 Z " fill="#505050" transform="translate(1506.2734375,412.7890625)"/>
<path d="M0 0 C4.0457656 3.25420277 5.71685009 5.98405034 7 11 C3.7 11.66 0.4 12.32 -3 13 C-3.2475 12.195625 -3.495 11.39125 -3.75 10.5625 C-4.70773463 7.94036234 -4.70773463 7.94036234 -6.625 7.1875 C-7.800625 7.0946875 -7.800625 7.0946875 -9 7 C-9.62648438 6.94972656 -10.25296875 6.89945312 -10.8984375 6.84765625 C-14.22171614 6.6932288 -16.46079183 6.74387612 -19.5 8.1875 C-21.25049111 9.95613266 -21.25049111 9.95613266 -21.25 12.6875 C-21.12625 13.8321875 -21.12625 13.8321875 -21 15 C-15.28195977 17.7228763 -9.42448104 19.33055203 -3.3046875 20.9375 C0.87001087 22.27971981 3.95315143 23.7726603 6.8125 27.125 C8.48180402 31.1664729 8.68552679 34.68879816 8 39 C5.30339081 44.29334397 1.79552915 47.90386868 -3.76953125 50.0859375 C-11.61733606 52.30647719 -19.91962994 51.99696514 -27.1953125 48.19921875 C-31.86519663 45.09607064 -33.53052794 41.26560823 -35 36 C-31.27712932 34.80868138 -27.88363264 34.5838965 -24 35 C-21.6875 37.4375 -21.6875 37.4375 -20 40 C-17.67404054 41.16297973 -16.21276769 41.16600691 -13.625 41.1875 C-12.85414063 41.20167969 -12.08328125 41.21585937 -11.2890625 41.23046875 C-8.73228162 40.97304542 -7.15472979 40.38892075 -5 39 C-3.91975342 36.59889783 -3.91975342 36.59889783 -4 34 C-6.046545 31.39614409 -7.79568656 30.5391929 -10.984375 29.82421875 C-11.75523437 29.63537109 -12.52609375 29.44652344 -13.3203125 29.25195312 C-14.92271461 28.8796909 -16.52688062 28.51493062 -18.1328125 28.15820312 C-23.87670891 26.73177038 -28.08430718 24.53824398 -32 20 C-33.45320819 15.64037544 -33.81697376 11.44107823 -32.3515625 7.0625 C-29.90115017 2.20356274 -26.8812531 0.26629608 -22 -2 C-14.66961416 -4.23487373 -6.71960611 -3.74142879 0 0 Z " fill="#505050" transform="translate(2092,413)"/>
<path d="M0 0 C2.89926382 2.52109897 4.87205617 4.80808426 7 8 C7 8.99 7 9.98 7 11 C3.7 11.66 0.4 12.32 -3 13 C-3.66 11.68 -4.32 10.36 -5 9 C-8.43702931 6.45405236 -11.85046112 6.63600536 -16 7 C-18.87146994 8.36997157 -18.87146994 8.36997157 -21 10 C-20.67 11.98 -20.34 13.96 -20 16 C-19.42556152 16.16081055 -18.85112305 16.32162109 -18.25927734 16.48730469 C-15.62796254 17.23062594 -13.00158795 17.99015258 -10.375 18.75 C-9.47136719 19.00265625 -8.56773438 19.2553125 -7.63671875 19.515625 C3.84860235 22.86900342 3.84860235 22.86900342 7.35546875 27.97265625 C8.82022725 32.57998753 8.69902935 37.29126158 6.875 41.75 C2.09425979 47.48688825 -2.66417447 50.5321443 -10.11328125 51.3359375 C-18.61910237 51.43979368 -25.17316441 50.63549381 -31.5 44.625 C-33.17041025 41.70178206 -33.68973796 39.33531693 -34 36 C-30.37671381 34.79223794 -27.80388473 34.59959108 -24 35 C-21.6875 37.4375 -21.6875 37.4375 -20 40 C-16.54733052 41.72633474 -12.78207052 41.35864462 -9 41 C-5.92500531 40.02662806 -5.92500531 40.02662806 -4 38 C-3.16666667 35.5 -3.16666667 35.5 -4 33 C-8.50415543 29.60681216 -13.62461081 28.77458612 -19.02929688 27.71484375 C-24.86547276 26.42037441 -28.68646015 24.04966617 -32.375 19.1875 C-33.78486893 14.25295873 -33.72918436 9.82353316 -31.4375 5.25 C-28.71510602 1.00655315 -24.88806355 -1.11949282 -20.078125 -2.5859375 C-13.16518383 -3.96332803 -6.1948116 -3.49061767 0 0 Z " fill="#505050" transform="translate(1161,413)"/>
<path d="M0 0 C17.82 0 35.64 0 54 0 C54 2.97 54 5.94 54 9 C47.07 9 40.14 9 33 9 C33 28.8 33 48.6 33 69 C29.37 69 25.74 69 22 69 C22 49.2 22 29.4 22 9 C14.74 9 7.48 9 0 9 C0 6.03 0 3.06 0 0 Z " fill="#505050" transform="translate(654,394)"/>
<path d="M0 0 C3.63 0 7.26 0 11 0 C11 3.96 11 7.92 11 12 C14.3 12 17.6 12 21 12 C21 14.97 21 17.94 21 21 C17.7 21 14.4 21 11 21 C11.33 31.56 11.66 42.12 12 53 C14.97 53.99 17.94 54.98 21 56 C21.33 58.64 21.66 61.28 22 64 C15.35095277 65.11040427 10.91812626 65.43251323 5 62 C2.77219082 60.0653236 1.31324496 58.62648991 0 56 C-0.08667255 53.37372867 -0.11560135 50.77437517 -0.09765625 48.1484375 C-0.0962413 47.37440582 -0.09482635 46.60037415 -0.09336853 45.80288696 C-0.08776403 43.32688558 -0.07521083 40.85097412 -0.0625 38.375 C-0.05748558 36.69791797 -0.05292257 35.02083453 -0.04882812 33.34375 C-0.03779315 29.22913194 -0.02052554 25.11458122 0 21 C-2.64 21 -5.28 21 -8 21 C-8 18.03 -8 15.06 -8 12 C-5.36 12 -2.72 12 0 12 C0 8.04 0 4.08 0 0 Z " fill="#505050" transform="translate(1745,399)"/>
<path d="M0 0 C3.63 0 7.26 0 11 0 C11 3.96 11 7.92 11 12 C14.63 12 18.26 12 22 12 C22 14.97 22 17.94 22 21 C18.37 21 14.74 21 11 21 C11.09360474 25.21792077 11.19971309 29.43528583 11.31738281 33.65258789 C11.35564866 35.08707068 11.39050581 36.52164865 11.421875 37.95629883 C11.46757862 40.01938878 11.52556193 42.08182495 11.5859375 44.14453125 C11.63306885 46.00621948 11.63306885 46.00621948 11.68115234 47.90551758 C11.77399209 51.16636101 11.77399209 51.16636101 14 54 C17.56769552 54.73606499 17.56769552 54.73606499 21 55 C21.66 57.97 22.32 60.94 23 64 C16.25774253 65.03006711 11.00885288 65.60808718 5 62 C0.75158187 57.86051567 0.07915222 54.3798433 -0.11352539 48.58666992 C-0.10828857 47.31412354 -0.10305176 46.04157715 -0.09765625 44.73046875 C-0.0962413 44.04946609 -0.09482635 43.36846344 -0.09336853 42.66682434 C-0.08780298 40.50700353 -0.07525703 38.34728911 -0.0625 36.1875 C-0.05748054 34.71679838 -0.05291841 33.24609512 -0.04882812 31.77539062 C-0.03784488 28.1835596 -0.02060422 24.5917902 0 21 C-2.31 21 -4.62 21 -7 21 C-7 18.03 -7 15.06 -7 12 C-4.69 12 -2.38 12 0 12 C0 8.04 0 4.08 0 0 Z " fill="#505050" transform="translate(1529,399)"/>
<path d="M0 0 C3.63 0 7.26 0 11 0 C11 3.96 11 7.92 11 12 C14.63 12 18.26 12 22 12 C22.09765625 18.15234375 22.09765625 18.15234375 22 20 C21 21 21 21 18.71484375 21.09765625 C17.34005859 21.08025391 17.34005859 21.08025391 15.9375 21.0625 C15.01839844 21.05347656 14.09929687 21.04445313 13.15234375 21.03515625 C12.44207031 21.02355469 11.73179688 21.01195312 11 21 C11.0934535 25.3786383 11.19952754 29.75673196 11.31738281 34.13476562 C11.35569998 35.62458889 11.39054808 37.11450554 11.421875 38.60449219 C11.46746729 40.74448048 11.52546874 42.88382436 11.5859375 45.0234375 C11.63306885 46.95582275 11.63306885 46.95582275 11.68115234 48.92724609 C11.68458268 52.10481505 11.68458268 52.10481505 14 54 C16.32275177 54.40047444 18.65739357 54.7397104 21 55 C21.33 57.97 21.66 60.94 22 64 C17.09472524 65.63509159 13.22268173 65.39374496 8.3125 63.8125 C3.81927748 61.35394428 1.6156504 58.84695121 0 54 C-0.0846817 51.48631945 -0.11601885 49.00130626 -0.09765625 46.48828125 C-0.0962413 45.76005661 -0.09482635 45.03183197 -0.09336853 44.28153992 C-0.08777659 41.95848461 -0.07522562 39.63552612 -0.0625 37.3125 C-0.05748396 35.73632952 -0.05292123 34.16015752 -0.04882812 32.58398438 C-0.0378098 28.72261902 -0.02055074 24.86132592 0 21 C-2.31 21 -4.62 21 -7 21 C-7 18.03 -7 15.06 -7 12 C-4.69 12 -2.38 12 0 12 C0 8.04 0 4.08 0 0 Z " fill="#505050" transform="translate(1268,399)"/>
<path d="M0 0 C3.3 0 6.6 0 10 0 C10 3.96 10 7.92 10 12 C13.63 12 17.26 12 21 12 C21 14.97 21 17.94 21 21 C17.37 21 13.74 21 10 21 C10.13882854 25.58357376 10.28726748 30.16678696 10.4375 34.75 C10.47681641 36.05195313 10.51613281 37.35390625 10.55664062 38.6953125 C10.59853516 39.94570313 10.64042969 41.19609375 10.68359375 42.484375 C10.72025146 43.63647461 10.75690918 44.78857422 10.79467773 45.97558594 C10.96567367 48.49437027 11.13123791 50.63596471 12 53 C14.08034294 54.1375213 14.08034294 54.1375213 16.5625 54.75 C17.38878906 54.99234375 18.21507812 55.2346875 19.06640625 55.484375 C19.70449219 55.65453125 20.34257813 55.8246875 21 56 C21.33 58.64 21.66 61.28 22 64 C16.15651044 64.9938722 11.40753164 65.2976018 5.7890625 63.27734375 C2.97452665 61.2678389 1.67918745 59.01606416 0 56 C-0.33686606 53.11128296 -0.47131714 50.62907495 -0.390625 47.7578125 C-0.38496521 46.98944061 -0.37930542 46.22106873 -0.37347412 45.42941284 C-0.35122173 42.99395379 -0.30105041 40.56000843 -0.25 38.125 C-0.22992042 36.4661672 -0.2116722 34.80731116 -0.1953125 33.1484375 C-0.15139406 29.09838201 -0.08244763 25.04944694 0 21 C-2.64 21 -5.28 21 -8 21 C-8 18.03 -8 15.06 -8 12 C-5.36 12 -2.72 12 0 12 C0 8.04 0 4.08 0 0 Z " fill="#505050" transform="translate(1882,399)"/>
<path d="M0 0 C3.63 0 7.26 0 11 0 C11 22.77 11 45.54 11 69 C7.37 69 3.74 69 0 69 C0 46.23 0 23.46 0 0 Z " fill="#505050" transform="translate(1830,394)"/>
<path d="M0 0 C3.63 0 7.26 0 11 0 C11 22.77 11 45.54 11 69 C7.37 69 3.74 69 0 69 C0 46.23 0 23.46 0 0 Z " fill="#505050" transform="translate(1035,394)"/>
<path d="M0 0 C1.8871875 0.0309375 1.8871875 0.0309375 3.8125 0.0625 C3.8125 3.6925 3.8125 7.3225 3.8125 11.0625 C2.018125 10.9696875 2.018125 10.9696875 0.1875 10.875 C-3.95065226 10.88233715 -6.68920344 11.7303023 -10.1875 14.0625 C-12.77988358 17.72141977 -12.5346519 21.79431185 -12.6015625 26.109375 C-12.62092865 26.88057678 -12.6402948 27.65177856 -12.6602478 28.4463501 C-12.71987077 30.90162205 -12.76635914 33.35694133 -12.8125 35.8125 C-12.85069575 37.48048882 -12.88974841 39.14845826 -12.9296875 40.81640625 C-13.02555791 44.89827943 -13.10965235 48.98024493 -13.1875 53.0625 C-16.8175 53.0625 -20.4475 53.0625 -24.1875 53.0625 C-24.1875 35.9025 -24.1875 18.7425 -24.1875 1.0625 C-20.5575 1.0625 -16.9275 1.0625 -13.1875 1.0625 C-12.8575 2.3825 -12.5275 3.7025 -12.1875 5.0625 C-11.424375 4.423125 -10.66125 3.78375 -9.875 3.125 C-6.49039769 0.52751451 -4.15078739 -0.06804569 0 0 Z " fill="#505050" transform="translate(1726.1875,409.9375)"/>
<path d="M0 0 C0 3.63 0 7.26 0 11 C-1.36125 10.9175 -2.7225 10.835 -4.125 10.75 C-8.81552286 10.7352034 -11.37193128 11.91614159 -15 15 C-16.58230808 18.16461615 -16.24157813 21.59079367 -16.31640625 25.0703125 C-16.33718735 25.86654022 -16.35796844 26.66276794 -16.37937927 27.48312378 C-16.44484149 30.03032685 -16.50374415 32.57763425 -16.5625 35.125 C-16.6056884 36.85027127 -16.64930279 38.57553193 -16.69335938 40.30078125 C-16.80051945 44.53374685 -16.90179623 48.76681753 -17 53 C-20.63 53 -24.26 53 -28 53 C-28 35.84 -28 18.68 -28 1 C-24.7 1 -21.4 1 -18 1 C-17.67 2.65 -17.34 4.3 -17 6 C-16.05125 5.195625 -15.1025 4.39125 -14.125 3.5625 C-9.35999202 -0.47739807 -6.17836791 -0.0882624 0 0 Z " fill="#505050" transform="translate(1027,410)"/>
<path d="M0 0 C3.63 0 7.26 0 11 0 C11 17.16 11 34.32 11 52 C7.37 52 3.74 52 0 52 C0 34.84 0 17.68 0 0 Z " fill="#505050" transform="translate(2110,411)"/>
<path d="M0 0 C1.03125 0.185625 2.0625 0.37125 3.125 0.5625 C2.135 2.0475 2.135 2.0475 1.125 3.5625 C1.03496007 6.02484097 1.03496007 6.02484097 1.25 8.875 C1.37067112 15.51945335 0.43077289 21.78026175 -0.75 28.3125 C-0.9238623 29.30161377 -1.09772461 30.29072754 -1.27685547 31.30981445 C-1.45104004 32.23366943 -1.62522461 33.15752441 -1.8046875 34.109375 C-1.96179199 34.94307617 -2.11889648 35.77677734 -2.28076172 36.63574219 C-2.47686035 37.27157227 -2.67295898 37.90740234 -2.875 38.5625 C-5.83208358 40.04104179 -7.77044685 39.08255822 -10.9375 38.3125 C-12.02160156 38.05984375 -13.10570312 37.8071875 -14.22265625 37.546875 C-15.09792969 37.22203125 -15.97320312 36.8971875 -16.875 36.5625 C-18.56519724 31.49190828 -15.96943009 26.86414471 -14.3125 21.9375 C-13.97669922 20.88175781 -13.64089844 19.82601562 -13.29492188 18.73828125 C-7.41874212 1.07691418 -7.41874212 1.07691418 0 0 Z " fill="#ED4755" transform="translate(478.875,115.4375)"/>
<path d="M0 0 C3.3 0 6.6 0 10 0 C10.44395158 8.13911226 9.21202545 14.73114155 3.8125 21.0625 C2.88826512 22.05419728 1.95546266 23.03835312 1 24 C-1.5 22.6875 -1.5 22.6875 -4 21 C-4 18 -4 18 -2.5625 15 C-0.3801265 10.2131902 -0.27217246 5.19004729 0 0 Z " fill="#505050" transform="translate(1117,394)"/>
<path d="M0 0 C3.4375 0.75 3.4375 0.75 5.4375 2.75 C6.1075702 8.89231015 6.1075702 8.89231015 3.875 11.75 C0.38607191 13.18135511 -1.96005972 12.683966 -5.5625 11.75 C-7.5625 8.75 -7.5625 8.75 -7.375 5.1875 C-6.23622678 0.36961331 -4.88730584 -0.34296883 0 0 Z " fill="#505050" transform="translate(2116.5625,391.25)"/>
<path d="M0 0 C-0.020625 1.051875 -0.04125 2.10375 -0.0625 3.1875 C-0.01093058 6.33323473 0.37182386 8.94885876 1 12 C0 13 0 13 -1.84765625 13.09765625 C-3.8984375 13.06510417 -5.94921875 13.03255208 -8 13 C-8.75 11.25 -8.75 11.25 -9 9 C-7.71034824 7.62437146 -6.37310707 6.29233607 -5 5 C-4.36707617 2.88719655 -4.36707617 2.88719655 -4 1 C-2 0 -2 0 0 0 Z " fill="#E53324" transform="translate(482,103)"/>
</svg>
